/* XPM */
static char *_49480f6c9124848f79e45e18ae16430r9VXjQGvsopx3yfD[] = {
/* columns rows colors chars-per-pixel */
"64 64 226 2 ",
"   c #7E3D10",
".  c #7E3F24",
"X  c #2F4415",
"o  c #2C611F",
"O  c #3B7126",
"+  c #4A5A1A",
"@  c #784E1D",
"#  c #5A711F",
"$  c #425625",
"%  c #754E21",
"&  c #665E3B",
"*  c #526528",
"=  c #467627",
"-  c #5A752B",
";  c #696626",
":  c #786A29",
">  c #687629",
",  c #7C7A2A",
"<  c #7C7936",
"1  c #6D6C4C",
"2  c #746343",
"3  c #7D6345",
"4  c #726945",
"5  c #6D7847",
"6  c #767A47",
"7  c #97372D",
"8  c #A53A33",
"9  c #AB3C34",
"0  c #834B24",
"q  c #954A29",
"w  c #875527",
"e  c #9D562F",
"r  c #8A5A31",
"t  c #9C5935",
"y  c #A24C2F",
"u  c #A95A2C",
"i  c #A8493A",
"p  c #B4423A",
"a  c #AA5836",
"s  c #AC593A",
"d  c #B25B3B",
"f  c #8A6628",
"g  c #97712C",
"h  c #8A623B",
"j  c #976637",
"k  c #857537",
"l  c #997736",
"z  c #A5642C",
"x  c #BC6429",
"c  c #A9742E",
"v  c #A8663C",
"b  c #B7693B",
"n  c #B6763B",
"m  c #C56D34",
"M  c #C7783B",
"N  c #D57C3B",
"B  c #AC4E43",
"V  c #B24F45",
"C  c #BD4D43",
"Z  c #A95745",
"A  c #B85847",
"S  c #896747",
"D  c #8D6447",
"F  c #8F6A42",
"G  c #936A45",
"H  c #8D734D",
"J  c #94734A",
"K  c #8F7553",
"L  c #8E7E58",
"P  c #997D56",
"I  c #947A58",
"U  c #A76845",
"Y  c #B86548",
"T  c #A5734E",
"R  c #B97749",
"E  c #A97F59",
"W  c #927F60",
"Q  c #C25A46",
"!  c #C45C4C",
"~  c #C4634B",
"^  c #C8624D",
"/  c #C57843",
"(  c #CC6B57",
")  c #CE6F5C",
"_  c #D16958",
"`  c #D17850",
"'  c #CD7261",
"]  c #D37664",
"[  c #D67C68",
"{  c #6A841A",
"}  c #478B27",
"|  c #5A8822",
" . c #4C922A",
".. c #569529",
"X. c #678B2A",
"o. c #7F882B",
"O. c #689826",
"+. c #759925",
"@. c #748C31",
"#. c #669331",
"$. c #5BA52A",
"%. c #77A828",
"&. c #6AB52B",
"*. c #75BA2B",
"=. c #6AAE32",
"-. c #7CA637",
";. c #7DB539",
":. c #79C42A",
">. c #5D8843",
",. c #768849",
"<. c #719049",
"1. c #7E925F",
"2. c #918B2F",
"3. c #8D9428",
"4. c #90972B",
"5. c #AC8C30",
"6. c #B28A38",
"7. c #8AB02C",
"8. c #83BD28",
"9. c #A8BC23",
"0. c #B3BC28",
"q. c #C5813E",
"w. c #D7833F",
"e. c #89C72A",
"r. c #96C928",
"t. c #95CB2E",
"y. c #A8C727",
"u. c #ABCC25",
"i. c #A5D428",
"p. c #B6D325",
"a. c #B6CC31",
"s. c #C1E027",
"d. c #8F924B",
"f. c #8A895C",
"g. c #AB8950",
"h. c #BC8B52",
"j. c #A4A247",
"k. c #998A65",
"l. c #939565",
"z. c #A58063",
"x. c #A28D62",
"c. c #A98E64",
"v. c #BF8F69",
"b. c #A69467",
"n. c #AA9167",
"m. c #AB9B6F",
"M. c #B09B6F",
"N. c #AD9C70",
"B. c #B19C70",
"V. c #B89D73",
"C. c #BCA76D",
"Z. c #ABA371",
"A. c #ACA872",
"S. c #B1A274",
"D. c #B1A975",
"F. c #BDAD7C",
"G. c #C88645",
"H. c #D68746",
"J. c #DD8C45",
"K. c #DD904C",
"L. c #C18954",
"P. c #CC8B53",
"I. c #CB9453",
"U. c #D29050",
"Y. c #D39254",
"T. c #D99658",
"R. c #DC9D5D",
"E. c #E08C47",
"W. c #E39A57",
"Q. c #E6A25F",
"!. c #C39167",
"~. c #D19169",
"^. c #E59F61",
"/. c #C2A56E",
"(. c #D9A166",
"). c #C8A171",
"_. c #CFA970",
"`. c #D9AB75",
"'. c #DBB479",
"]. c #E6A362",
"[. c #E6A867",
"{. c #EAAC6A",
"}. c #ECB26F",
"|. c #E7AC71",
" X c #ECB374",
".X c #EDB779",
"XX c #EEB97C",
"oX c #F0BE7F",
"OX c #90D04E",
"+X c #B3B083",
"@X c #C2B280",
"#X c #DAB482",
"$X c #DABB89",
"%X c #C5BD92",
"&X c #E4BA87",
"*X c #EDBD83",
"=X c #F0BF82",
"-X c #DCC79A",
";X c #EAC28C",
":X c #F2C386",
">X c #F2C58B",
",X c #F4C98F",
"<X c #E4C899",
"1X c #F4CC93",
"2X c #F4CF9B",
"3X c #F7D39B",
"4X c #F6D29C",
"5X c #E7D4A7",
"6X c #F6D5A3",
"7X c #F8D6A0",
"8X c #F7D8A3",
"9X c #F8DAA5",
"0X c #F7DCAB",
"qX c #F9DDAB",
"wX c #F9DFB2",
"eX c #F5E0AF",
"rX c #FAE1AE",
"tX c #FBE4B3",
"yX c #FCE8B7",
"uX c #FBE4B9",
"iX c #FDEBBB",
"pX c #FDEBBC",
"aX c #FDECC2",
"sX c #FEEEC4",
"dX c #FDECC9",
"fX c #FEF2D0",
/* pixels */
"@X@X@X@X@X@X@X@X@X@X@X@X@X@X@X@X@X@X@X@X@X@X@X@X@X@X@X@X@X@X@X@X@X@X@X@X@X@X@X@X@X@X@X@X@X@X@X@X@X@X@X@X@X@X@X@X@X@X@X@X@X@X@X@X",
"@X@X@X@X@X@X@X@X@X@X@X@X@X@X@X@X@X@X@X@X@X@X@X@X@X@X@X@X@X@X@X@X@X@X@X@X@X@X@X@X@X@X@X@X@X@X@X@X@X@X@X@X@X@X@X@X@X@X@X@X@X@X@X@X",
"@X@X@X@X@X@X@X@X@X@X@X@X@X@X@X@X@X@X@X@X@X@X@X@X@X@X@X@X@X@X@X@X@X@X@X@X@X@X@X@X@X@X@X@X@X@X@X@X@X@X@X@X@X@X@X@X@X@X@X@X@X@X@X@X",
"@X@X@X@X@X@X@X@X@X@X@X@X@X@X@X@X@X@X@X@X@X@X@X@X@X@X@X@X@X@X@X@X@X@X@X@X@X@X@X@X@X@X@X@X@X@X@X@X@X@X@X@X@X@X@X@X@X@X@X@X@X@X@X@X",
"@X@X@X@X@X@X@X@X@X@X@X@X@X@X@X@X@X@X@X@X@X@X@X@X@X@X@X@X@X@X@X@X@X@X@X@X@X@X@X@X@X@X@X@X@X@X@X@X@X@X@X@X@X@X@X@X@X@X@X@X@X@X@X@X",
"@X@X@X@X@X@X@X@X@X@X@X@X@X@X@X@X@X@X@X@X@X@X@X@X@X@X@X@X@X@X@X@X@X@X@X@X@X@X@X@X@X@X@X@X@X@X@X@X@X@X@X@X@X@X@X@X@X@X@X@X@X@X@X@X",
"@X@X@X@X@X@X@X@X@X@X@X@X@X@X@X@X@X@X@X@X@X@X@X@X@X@X@X@X@X@X@X@X@X@X@X@X@X@X@X@X@X@X@X@X@X@X@X@X@X@X@X@X@X@X@X@X@X@X@X@X@X@X@X@X",
"@X@X@X@X@X@X@X@X@X@X@X@X@X@X@X@X@X@X@X@X@X@X@X@X@X@X@X@X@X@X@X@X@X@X@X@X@X@X@X@X@X@X@X@X@X@X@X@X@X@X@X@X@X@X@X@X@X@X@X@X@X@X@X@X",
"@X@X@X@X@X@X@X@X@X@X@X@X@X@X@X@X@X@X@X@X@X@X@X@X@X@X@X@X@X@X@X@X@X@X@X@X@X@X@X@X@X@X@X@X@X@X@X@X@X@X@X@X@X@X@X@X@X@X@X@X@X@X@X@X",
"@X@X@X@X@X@X@X@X@X@X@X@X@X@X@X@X@X@X@X@X@X@X@X@X@X@X@X@X@X@X@X@X@X@X@X@X@X@X@X@X@X@X@X@X@X@X@X@X@X@X@X@X@X@X@X@X@X@X@X@X@X@X@X@X",
"@X@X@X@X@X@X@X@X@X@X@X@X@X@X@X@X@X@X@X@X@X@X@X@X@X@X@X@X@X@X@X@X@X@X@X@X@X@X@X@X@X@X@X@X@X@X@X@X@X@X@X@X@X@X@X@X@X@X@X@X@X@X@X@X",
"@X@X@X@X@X@X@X@X@X@X@X@X@X@X@X@X@X@X@X@X@X@X@XF.S.m.m.m.m.S.F.@X@X@X@X@X@X@X@X@X@X@X@X@X@X@X@X@X@X@X@X@X@X@X@X@X@X@X@X@X@X@X@X@X",
"@X@X@X@X@X@X@X@X@X@X@X@X@X@X@X@X@X@X@X@X@X@X@XS.L 2 2 2 2 L S.@X@X@X@X@X@X@X@X@X@X@X@X@X@X@X@X@X@X@X@X@X@X@X@X@X@X@X@X@X@X@X@X@X",
"@X@X@X@X@X@X@X@X@X@X@X@X@X@X@X@X@X@X@XF.S.m.M.c.J S I L K P n.M.m.m.m.S.F.@X@X@X@X@X@X@X@X@X@X@X@X@X@X@X@X@X@X@X@X@X@X@X@X@X@X@X",
"@X@X@X@X@X@X@X@X@X@X@X@X@X@X@X@X@X@X@XS.L 3 D T L._.-X-X$X).E D 3 2 2 L S.@X@X@X@X@X@X@X@X@X@X@X@X@X@X@X@X@X@X@X@X@X@X@X@X@X@X@X",
"@X@X@X@X@X@X@X@X@X@X@X@X@X@X@XF.S.m.M.n.P I z.v.(.*XqXyX9X;X!.T I L K P n.M.m.m.m.S.F.@X@X@X@X@X@X@X@X@X@X@X@X@X@X@X@X@X@X@X@X@X",
"@X@X@X@X@X@X@X@X@X@X@X@X@X@X@XS.L 3 D E ).$X<X<X*X,XrXpXyX6X&X#X-X-X$X).E D 3 2 2 L S.@X@X@X@X@X@X@X@X@X@X@X@X@X@X@X@X@X@X@X@X@X",
"@X@X@X@X@X@X@X@X@X@X@X@X@XF.S.b.I G T !.;X9XyXtX3X3XtXpXiXqX1X1XrXyX9X&X!.T I I H P n.M.m.S.F.@X@X@X@X@X@X@X@X@X@X@X@X@X@X@X@X@X",
"@X@X@X@X@X@X@X@X@X@X@X@X@XS.L I /.`.`.&X6XyXiXtX4X7XtXiXyX9X,X1XtXpXyX6X&X'.$X$X#X).E D 3 L S.@X@X@X@X@X@X@X@X@X@X@X@X@X@X@X@X@X",
"@X@X@X@X@X@X@X@X@X@X@XF.S.b.k.V.;X1X>X1XrXpXiXtX7X7XtXiXtX9X,X1XrXaXsXtX1X,X9XrX7X;X!.T G P n.M.m.S.F.@X@X@X@X@X@X@X@X@X@X@X@X@X",
"@X@X@X@X@X@X@X@X@X@X@XS.L k.%X5XeX9X1X1XrXiXiXrX3X3XtXpXiXqX1X1XrXsXfXaX2X1XqXiXyX6X&X`.`.).E D 3 L S.@X@X@X@X@X@X@X@X@X@X@X@X@X",
"@X@X@X@X@X@X@X@X@X@X@Xm.2 W -XtXiXtX1X1XrXiXiXrX3X4XtXiXiXtX1X1XtXsXfXaX6X1XtXiXiXrX3X,X1X;X).z.K I b.S.F.@X@X@X@X@X@X@X@X@X@X@X",
"@X@X@X@X@X@X@X@X@X@X@Xm.2 K $X9XyXtX1X1XrXiXyXqX6X8XtXiXiXtX6X6XtXaXsXuX4X4XtXiXyXrX6X6XrXwX5X<X$X/.I L S.@X@X@X@X@X@X@X@X@X@X@X",
"@X@X@X@X@X@X@X@X@X@X@Xm.2 F _.1X8X6X>X1XrXiXyXqX6X8XtXaXsXpXqX9XyXiXiXtX4X4XtXiXyXrX9XqXpXsXaXyX9X$XE h x.S.F.@X@X@X@X@X@X@X@X@X",
"@X@X@X@X@X@X@X@X@X@X@Xm.2 h (. X*XXX X=XqXpXiXqX2X2XtXsXfXdXwXqXyXiXiXtX3X3XtXiXyXrXqXtXdXfXsXiXyX2X~.z h L S.@X@X@X@X@X@X@X@X@X",
"@X@X@X@X@X@X@X@X@X@X@Xm.S r h.R.[.[.Q. X2XqXtX9X,X1XtXsXfXdXqX9XtXpXiXrX6X8XtXiXyXrX8XqXdXfXsXpXtX2X(.x   2 m.@X@X@X@X@X@X@X@X@X",
"@X@X@X@X@X@X@X@X@X@X@XB.G 7 t R R.].W.^..X>X1X1X:X1XrXaXsXuX4X3XtXiXtXqXwXuXuXiXtX9X1X4XuXsXaXtX9X>XT.x   2 m.@X@X@X@X@X@X@X@X@X",
"@X@X@X@X@X@X@X@X@X@X@XV.U 7 8 U P.Y.H.K.Q. XoX=X.X:X8XtXiXqX1X1XtXiXtXrXwXuXuXiXtX9X1X1X9XtX0X4X>X|.K.x   2 m.@X@X@X@X@X@X@X@X@X",
"@X@X@X@X@X@X@X@X@X@X/.V.Y p A Y U v b / R.{.}.{.].|.>X7XqX9X1X1XtXiXiXtX0X0XyXpXiXqX1X>X1X1X*X|.].W.` x   2 m.@X@X@X@X@X@X@X@X@X",
"@X@X@X@X@X@X@X@X@XF.D.b.g.b ~ ! A Z d Y P.T.R.T.K.W..X>X1X1X:X>X9XtXiXtX4X4XtXiXtX8X*X XXX XW.J.J.H.m u % 6 Z.@X@X@X@X@X@X@X@X@X",
"@X@X@X@X@X@X@X@X/.D.l.<.-.4.b ! ' ] ( ~ U v b / H.W.{. X.X X{. X1X9XtXtX1X1XtXtX9X>X].K.W.W.K.J.J.N d w > ,.A.@X@X@X@X@X@X@X@X@X",
"@X@X@X@X@X@X@X@X@XZ.<. .&.7.5.G.~.~.) ! A Z d b M H.Y.R.].Q.W.].XX1XqX8X:X*X2X4X>X|.K.N w.J.H.w.M b y 0 - <.A.@X@X@X@X@X@X@X@X@X",
"@X@X@X@X@X@X@X@X@XZ.<...*.i.p.a.j.g.A ! ' ] ( ~ s a b G.W.Q.W.W.{.XX1X>X|.^.|.|.].T.N N w.H.m d u y 8 q ; ,.Z.@X@X@X@X@X@X@X@X@X",
"@X@X@X@X@X@X@X@X@XZ.,.| %.r.u.y.%.@.j Y ' ] _ ! A Z d Y P.Y.H.K.Q. X:X*X].E.J.J.J.H.M m M M b d Z B 9 i S f.D.@X@X@X@X@X@X@X@X@X",
"@X@X@X@X@X@X@X@X@XB.H ; | O.%.%.&.=.@.k Z V C ! ' ] ( ~ U v a / R. X:X*X^.E.J.J.J.w.m u u s ~ ( ] ) C Y c.D.F.@X@X@X@X@X@X@X@X@X",
"@X@X@X@X@X@X@X@X@XB.D % : > = ..8.e.=.#., f t Y ' ] _ ! i i i Y P.(.`.`.Y.N M M M M b s i i ! _ ] ' Y T b.D.F.@X@X@X@X@X@X@X@X@X",
"@X@X@X@X@X@X@X@X/.N.3 @ z g > O.y.p.e.&.%.+.@.k Z V C C ! ~ ^ Y U U R R b b u y y s ~ ^ ~ ! C C V Z k < 5 f.D.@X@X@X@X@X@X@X@X@X",
"@X@X@X@X@X@X@X@X/.m.2 @ n G.2.4.y.p.i.t.e.*...- % 0 e s A ! ! A 8 7 a d Y Y Z Z i i ! ^ ^ A s z c 2.+...O 5 Z.@X@X@X@X@X@X@X@X@X",
"@X@X@X@X@X@X@X@X@Xm.2 r P.T.U.6.4.7.p.p.i.8...O + * > k t i i 8 8 p Q ( [ ~.[ ] ( ! C p i t k 4.0.p.r.%.= 1 N.@X@X@X@X@X@X@X@X@X",
"@X@X@X@X@X@X@X@X@XS.L J h.Y.K.q.2.3.y.u.r.7.d.f.l.1.>.- : w f f e s A ( ] [ [ ] ( A s t f , #.;.y.p.r.7.,.f.S.@X@X@X@X@X@X@X@X@X",
"@X@X@X@X@X@X@X@X@XF.S.x.J v G.H.M 5.3.+.O.d.C.-X-X%X1.= - X.+.%.@.k t i B V V B i t k @.%.%.&.&.;.%.O.<.l.S.F.@X@X@X@X@X@X@X@X@X",
"@X@X@X@X@X@X@X@X@X@X@XS.L F n M x c l < k g.'.1XqX5X+X1.>.#.8.e.;.-.2.f @ . 0 w f , #.=.*.e.t.8.#.O o 5 Z.@X@X@X@X@X@X@X@X@X@X@X",
"@X@X@X@X@X@X@X@X@X@X@XF.S.x.F 0 q u n G.I.(.|.XX1X6X5X%X1.+.u.a.OXOX;.+.# * - X.+.%.&.*.e.i.p.y.+.o X 4 N.@X@X@X@X@X@X@X@X@X@X@X",
"@X@X@X@X@X@X@X@X@X@X@X@X@XS.L 3 D U n G.I.R.[.}.XX,X8X<XZ.d.y.a.OXOX=.$.} } ..$.&.:.:.:.8.r.u.9.{ $ & L S.@X/.@X@X@X@X@X@X@X@X@X",
"@X@X@X@X@X@X@X@X@X@X@X@X@XF.S.N.B.c.F w t R R.[.].{.XX*X'./.j.+.#. .} } $.&.&.&.*.:.e.8.O.X.+.{ + & k.S.F.@X@X@X@X@X@X@X@X@X@X@X",
"@X@X@X@X@X@X@X@X@X@X@X@X@X@X@X@X@XS.L 3 D T L.P.H.H.Q. XoX'.g.< d.6 * } 8.t.t.t.t.r.e.7.o.; + $ & L S.@X@X@X@X@X@X@X@X@X@X@X@X@X",
"@X@X@X@X@X@X@X@X@X@X@X@X@X@X@X@X@XF.S.N.B.c.J r e R R.{. X[.I.I._.C.6 O.y.s.s.s.p.u.%.o.6.c % & k.S.F.@X@X@X@X@X@X@X@X@X@X@X@X@X",
"@X@X@X@X@X@X@X@X@X@X@X@X@X@X@X@X@X@X@X@X@XS.L 3 D T L.Y.T.T.K.W..X'.g.3.9.p.p.p.p.9.3.g n n F L S.@X@X@X@X@X@X@X@X@X@X@X@X@X@X@X",
"@X@X@X@X@X@X@X@X@X@X@X@X@X@X@X@X@X@X@X@X@XF.S.N.B.n.J h j b H.W.{.[.I.6.3.+.+.+.+.3.6.n e F x.S.F.@X@X@X@X@X@X@X@X@X@X@X@X@X@X@X",
"@X@X@X@X@X@X@X@X@X@X@X@X@X@X@X@X@X@X@X@X@X@X@X@X@XS.L 3 D U n G.Y.T.K.G.l : : < k l n n F L S.@X@X@X@X@X@X@X@X@X@X@X@X@X@X@X@X@X",
"@X@X@X@X@X@X@X@X@X@X@X@X@X@X@X@X@X@X@X@X@X@X@X@X@XF.S.N.B.c.F w t R H.H.G.q.q.G.I.h.j F x.S.F.@X@X@X@X@X@X@X@X@X@X@X@X@X@X@X@X@X",
"@X@X@X@X@X@X@X@X@X@X@X@X@X@X@X@X@X@X@X@X@X@X@X@X@X@X@X@X@XS.L 3 D U n M M M M G.P.h.J L S.@X@X@X@X@X@X@X@X@X@X@X@X@X@X@X@X@X@X@X",
"@X@X@X@X@X@X@X@X@X@X@X@X@X@X@X@X@X@X@X@X@X@X@X@X@X@X@X@X@XF.S.N.B.c.F 0 0 0 0 w r J x.S.F.@X@X@X@X@X@X@X@X@X@X@X@X@X@X@X@X@X@X@X",
"@X@X@X@X@X@X@X@X@X@X@X@X@X@X@X@X@X@X@X@X@X@X@X@X@X@X@X@X@X@X@X@X@XS.L 2 2 2 2 2 2 L S.@X@X@X@X@X@X@X@X@X@X@X@X@X@X@X@X@X@X@X@X@X",
"@X@X@X@X@X@X@X@X@X@X@X@X@X@X@X@X@X@X@X@X@X@X@X@X@X@X@X@X@X@X@X@X@XF.S.m.m.m.m.m.m.S.F.@X@X@X@X@X@X@X@X@X@X@X@X@X@X@X@X@X@X@X@X@X",
"@X@X@X@X@X@X@X@X@X@X@X@X@X@X@X@X@X@X@X@X@X@X@X@X@X@X@X@X@X@X@X@X@X@X@X@X@X@X@X/.@X@X@X@X@X@X@X@X@X@X@X@X@X@X@X@X@X@X@X@X@X@X@X@X",
"@X@X@X@X@X@X@X@X@X@X@X@X@X@X@X@X@X@X@X@X@X@X@X@X@X@X@X@X@X@X@X@X@X@X@X@X@X@X@X@X@X@X@X@X@X@X@X@X@X@X@X@X@X@X@X@X@X@X@X@X@X@X@X@X",
"@X@X@X@X@X@X@X@X@X@X@X@X@X@X@X@X@X@X@X@X@X@X@X@X@X@X@X@X@X@X@X@X@X@X@X@X@X@X@X@X@X@X@X@X@X@X@X@X@X@X@X@X@X@X@X@X@X@X@X@X@X@X@X@X",
"@X@X@X@X@X@X@X@X@X@X@X@X@X@X@X@X@X@X@X@X@X@X@X@X@X@X@X@X@X@X@X@X@X@X@X@X@X@X@X@X@X@X@X@X@X@X@X@X@X@X@X@X@X@X@X@X@X@X@X@X@X@X@X@X",
"@X@X@X@X@X@X@X@X@X@X@X@X@X@X@X@X@X@X@X@X@X@X@X@X@X@X@X@X@X@X@X@X@X@X@X@X@X@X@X@X@X@X@X@X@X@X@X@X@X@X@X@X@X@X@X@X@X@X@X@X@X@X@X@X",
"@X@X@X@X@X@X@X@X@X@X@X@X@X@X@X@X@X@X@X@X@X@X@X@X@X@X@X@X@X@X@X@X@X@X@X@X@X@X@X@X@X@X@X@X@X@X@X@X@X@X@X@X@X@X@X@X@X@X@X@X@X@X@X@X",
"@X@X@X@X@X@X@X@X@X@X@X@X@X@X@X@X@X@X@X@X@X@X@X@X@X@X@X@X@X@X@X@X@X@X@X@X@X@X@X@X@X@X@X@X@X@X@X@X@X@X@X@X@X@X@X@X@X@X@X@X@X@X@X@X",
"@X@X@X@X@X@X@X@X@X@X@X@X@X@X@X@X@X@X@X@X@X@X@X@X@X@X@X@X@X@X@X@X@X@X@X@X@X@X@X@X@X@X@X@X@X@X@X@X@X@X@X@X@X@X@X@X@X@X@X@X@X@X@X@X",
"@X@X@X@X@X@X@X@X@X@X@X@X@X@X@X@X@X@X@X@X@X@X@X@X@X@X@X@X@X@X@X@X@X@X@X@X@X@X@X@X@X@X@X@X@X@X@X@X@X@X@X@X@X@X@X@X@X@X@X@X@X@X@X@X"
};
