/* XPM */
static char *dbbfec393ab24804e5c4c1c0f2e877a7YTQZxTIjE9Fnqqhu[] = {
/* columns rows colors chars-per-pixel */
"64 64 238 2 ",
"   c None",
".  c #562A04",
"X  c #5B2C02",
"o  c #582D0B",
"O  c #4E2E1A",
"+  c #552E16",
"@  c #54301B",
"#  c #612E01",
"$  c #653101",
"%  c #6B3301",
"&  c #723701",
"*  c #763901",
"=  c #7B3B01",
"-  c #763A0C",
";  c #763D18",
":  c #6F3A18",
">  c #523324",
",  c #53392C",
"<  c #4F3E37",
"1  c #543B34",
"2  c #4F3426",
"3  c #6B3C26",
"4  c #753D29",
"5  c #753C32",
"6  c #6B3B36",
"7  c #7C411B",
"8  c #7F4000",
"9  c #56443C",
"0  c #4F4039",
"q  c #7B4427",
"w  c #774B37",
"e  c #6F4A3A",
"r  c #693C49",
"t  c #554641",
"y  c #584B46",
"u  c #5C524D",
"i  c #5D5654",
"p  c #694E45",
"a  c #764845",
"s  c #6B5349",
"d  c #7E594B",
"f  c #795648",
"g  c #635D5B",
"h  c #695A54",
"j  c #775C53",
"k  c #75465B",
"l  c #66615F",
"z  c #7C635B",
"x  c #75625A",
"c  c #6D516C",
"v  c #6A6665",
"b  c #6E6B6A",
"n  c #666363",
"m  c #746663",
"M  c #736966",
"N  c #7A6A65",
"B  c #736D6C",
"V  c #7C6E69",
"C  c #7E6762",
"Z  c #7B716E",
"A  c #75706E",
"S  c #747373",
"D  c #7A7674",
"F  c #7D7B7B",
"G  c #787679",
"H  c #71677C",
"J  c #574C6A",
"K  c #833E01",
"L  c #843F09",
"P  c #863E17",
"I  c #864101",
"U  c #8B4301",
"Y  c #88430A",
"T  c #924501",
"R  c #954B01",
"E  c #9B4A01",
"W  c #97480A",
"Q  c #9C5301",
"!  c #9E5900",
"~  c #88451B",
"^  c #984C19",
"/  c #A34D00",
"(  c #A45301",
")  c #AD5401",
"_  c #A45A01",
"`  c #AB5B01",
"'  c #B35B01",
"]  c #B05601",
"[  c #A9571B",
"{  c #AE6300",
"}  c #AA6A01",
"|  c #B46300",
" . c #BA6501",
".. c #B66A00",
"X. c #BC6B00",
"o. c #B8670E",
"O. c #BB7201",
"+. c #B97804",
"@. c #B76917",
"#. c #B36F18",
"$. c #8E4E2A",
"%. c #884824",
"&. c #914C27",
"*. c #834E33",
"=. c #804F38",
"-. c #87523A",
";. c #955838",
":. c #9A512A",
">. c #A85E37",
",. c #AB5C25",
"<. c #9A6235",
"1. c #B56A22",
"2. c #BD7523",
"3. c #AB653A",
"4. c #B26D33",
"5. c #C16D00",
"6. c #C37500",
"7. c #C47B00",
"8. c #CA7C00",
"9. c #C77A12",
"0. c #C37B31",
"q. c #865A48",
"w. c #975C44",
"e. c #894D55",
"r. c #986448",
"t. c #866656",
"y. c #9B6A58",
"u. c #99725C",
"i. c #A76A45",
"p. c #B16842",
"a. c #A26E5A",
"s. c #A9785C",
"d. c #B57951",
"f. c #8D596A",
"g. c #846D67",
"h. c #86796A",
"j. c #997767",
"k. c #827D7C",
"l. c #897E7B",
"z. c #887873",
"x. c #947A73",
"c. c #9B7E73",
"v. c #8F686C",
"b. c #AB7B69",
"n. c #CB8400",
"m. c #CB8900",
"M. c #D28B00",
"N. c #D08500",
"B. c #DB9400",
"V. c #DD9B00",
"C. c #D49302",
"Z. c #E09C00",
"A. c #E5A900",
"S. c #E4A600",
"D. c #EBB600",
"F. c #D38D30",
"G. c #DEA623",
"H. c #DEA219",
"J. c #BC8552",
"K. c #87816F",
"L. c #8A8373",
"P. c #84807F",
"I. c #8A827D",
"U. c #8E8878",
"Y. c #908B7B",
"T. c #968479",
"R. c #988D72",
"E. c #A8876D",
"W. c #B4826C",
"Q. c #A68A77",
"!. c #A6987A",
"~. c #B29C74",
"^. c #BC9269",
"/. c #AFA27A",
"(. c #B2A57C",
"). c #BAAA7D",
"_. c #C38A5C",
"`. c #D59959",
"'. c #D09149",
"]. c #DBAA57",
"[. c #DEAA47",
"{. c #E6B54A",
"}. c #C89A6A",
"|. c #C69D72",
" X c #D8A96C",
".X c #C4AC7B",
"XX c #C9A777",
"oX c #C2B27F",
"OX c #D2A971",
"+X c #E0BA71",
"@X c #6B588B",
"#X c #746F8D",
"$X c #776FB0",
"%X c #8A798D",
"&X c #876EA4",
"*X c #847DCC",
"=X c #7F8080",
"-X c #848383",
";X c #8B8583",
":X c #8C8C8C",
">X c #8A8788",
",X c #938E8C",
"<X c #958884",
"1X c #9B948A",
"2X c #989388",
"3X c #8F8E92",
"4X c #939292",
"5X c #9B9A9A",
"6X c #9D9695",
"7X c #918B94",
"8X c #A98E85",
"9X c #A69989",
"0X c #A39692",
"qX c #A39C91",
"wX c #AB9B94",
"eX c #B29B8B",
"rX c #B3A583",
"tX c #B6A983",
"yX c #BAAC84",
"uX c #BBAD8A",
"iX c #B8A58B",
"pX c #BFB085",
"aX c #ACA69A",
"sX c #AAA396",
"dX c #B8AA95",
"fX c #BDB199",
"gX c #ADA389",
"hX c #8E85A7",
"jX c #998CAF",
"kX c #A598AD",
"lX c #B2A7AC",
"zX c #C6AB86",
"xX c #C2B280",
"cX c #C5B38A",
"vX c #CFB68A",
"bX c #918CC6",
"nX c #A59ED0",
"mX c #AEA6CA",
/* pixels */
"xXxXxXxXxXxXxXxXxXxXxXxXxXxXxXxXxXxXxXxXxXxXxXxXxXxXxXxXxXxXxXxXxXxXxXxXxXxXxXxXxXxXxXxXxXxXxXxXxXxXxXxXxXxXxXxXxXxXxXxXxXxXxXxX",
"xXxXxXxXxXxXxXxXxXxXxXxXxXxXxXxXxXxXxXxXxXxXxXxXxXxXxXxXxXxXxXxXxXxXxXxXxXxXxXxXxXxXxXxXxXxXxXxXxXxXxXxXxXxXxXxXxXxXxXxXxXxXxXxX",
"xXxXxXxXxXxXxXxXxXxXxXxXxXxXxXxXxXxXxXxXxXxXxXxXxXxXxXxXxXxXxXxXxXxXxXxXxXxXxXxXxXxXxXxXxXxXxXxXxXxXxXxXxXxXxXxXxXxXxXxXxXxXxXxX",
"xXxXxXxXxXxXxXxXxXxXxXxXxXxXxXxXxXxXxXxXxXxXxXxXxXxXxXxXxXxXxXxXxXxXxXxXxXxXxXxXxXxXxXxXxXxXxXxXxXxXxXxXxXxXxXxXxXxXxXxXxXxXxXxX",
"xXxXxXxXxXxXxXxXxXxXxXxXxXxXxXxXxXxXxXxXxXxXxXxXxXxXxXxXxXxXxXxXxXxXxXxXoXoXoXoXxXxXxXxXxXxXxXxXxXxXxXxXxXxXxXxXxXxXxXxXxXxXxXxX",
"xXxXxXxXxXxXxXxXxXxXxXxXxXxXxXxXxXxXxXxXxXxXxXxXxXxXxXxXxXxXxXxXxXxXxXxXoXoXoXoXxXxXxXxXxXxXxXxXxXxXxXxXxXxXxXxXxXxXxXxXxXxXxXxX",
"xXxXxXxXxXxXxXxXxXxXxXxXxXxXxXxXxXxXxXxXxXxXxXxXxXxXxXxXxXxXxXxXxXxXxXxXxXxXoXoXxXxXxXxXxXxXxXxXxXxXxXxXxXxXxXxXxXxXxXxXxXxXxXxX",
"xXxXxXxXxXxXxXxXxXxXxXxXxXxXxXxXxXxXxXxXxXxXxXxXxXxXxXxXxXxXxXxXxXxXxXxXxXxXoXoXxXxXxXxXxXxXxXxXxXxXxXxXxXxXxXxXxXxXxXxXxXxXxXxX",
"xXxXxXxXxXxXxXxXxXxXxXxXoXoXoXxXxXxXxXxXxXxXoXoXxXxXxXxXxXxXxXxXoXoXxXxXxXxXxXxXxXxXxXxXxXxXxXoXxXxXxXxXxXxXxXxXxXxXxXxXxXxXxXxX",
"xXxXxXxXxXxXxXxXxXxXxXxXxXxXoXxXpXuXuXuXuXuXuXuXuXyXtXtXtXtXtXtXtXtXtXtXtXtXtXrXrXtXtXtXtXyXyXyXyXyXyXyXxXxXoXxXxXxXxXxXxXxXxXxX",
"xXxXxXxXxXxXxXxXxXxXxXxXxXxXxXuXdXaXaXaXaXaXsXsXsXqX1X1X1X1X1X1X1X1X1X1X2X2X2X2X2X2X1XqXqXqXqXqXqXqXqXgXyXxXxXxXxXxXxXxXxXxXxXxX",
"xXxXxXxXxXxXxXxXxXxXxXxXoXxXyXgXqX5X5X5X5X5X5X5X5X4X4X:X:X:X:X:X:X:X:X:X:X>X>X-X-X>X:X:X:X:X3X3X4X:X:X2X9X).).xXxXxXxXxXxXxXxXxX",
"xXxXxXxXxXxXxXxXxXxXxXxXxXyX9X2X:X:X:X3X3X:X:X:X4X4X3X:X:X:X:X:X:X:X:X>X>X>X-X-X-X-X-X>X-X-X-X-X-X-XF k.L.R.(.xXxXxXxXxXxXxXxXxX",
"xXxXxXxXxXxXxXxXxXxXxXxXxX(.T.z.z.D z.k.k.k.k.k.;X>X>X>X>X>X-X-Xk.k.k.k.k.k.F F F F F D S A B B B V M m m z.9XyXxXoXxXxXxXxXxXxX",
"xXxXxXxXxXxXxXxXxXxXxXxX).E.u.t.d f d j j j j z N V V V V V V V M N N N N N m m m m m x h s s s s p p e w j %XwXyXxXxXxXxXxXxXxX",
"xXxXxXxXxXxXxXxXxXxXxX.X~.a.3.;.%.7 ~ %.q q %.*.q.d d d d d f f f d d d d d d f f f f f w 3 3 3 3 q 7 - Y e.f.%XiXcXxXxXxXxXxXxX",
"xXxXxXxXxXxXxXxXxXxXxX.X^.p.,.[ W T W W Y Y W ^ &.$.$.$.$.$.q q $.$.$.$.$.$.$.$.$.$.$.&.~ Y - - L Y U T T &.e.v.kXlXcXxXoXxXxXxX",
"xXxXxXxXxXxXxXxXxXxXxXXXJ.4.@.` ( ( ` ` Q Q _ ` ( ( ( ( ( E I I R E E / / E E E E E E E E U = = U T E E E W &.f.hXlXfXxXoXxXxXxX",
"xXxXxXxXxXxXxXxXxXxXzX|.'.2.o. .....O.X.{ { ..X. . .| ' ' ( R T / ( ) ) ) ( ( ( ( ( ( ( / T K = T E E E E E W f.&XjXdXxXoXxXxXxX",
"xXxXxXxXxXxXxXxXxXxX.X}.F.9.O.O.7.n.n.7.O.O.7.8.8.6.5.X. .` Q E ( ' ' ' ] ) ) ) ] ] ] ) / E K K T E E E E E E e.%XhXwXuXxXxXxXxX",
"xXxXxXxXoXxXxXxXxX.X}.'.F.n.7.7.M.C.B.M.7.7.M.M.M.n.8.5.X.| ( Q ) ' ' ' ] ] ] ) ] ] ) ) ( E I K T E E E E E E ;.e.v.hXlXuXxXxXxX",
"xXxXxXxXxXxXxXxXxX.X}.'.F.M.n.m.V.S.Z.B.M.M.B.B.B.M.n.6...{ _ _ '  . .' ] ) ) ] ] ] ) ) ) / U K U T E E E E E W %.e.&XkXfXxXoXxX",
"xXxXxXxXoXoXoXxXxX.X X].G.V.C.C.A.A.S.V.V.V.Z.Z.B.B.M.8...` ! _ |  . .' ] ) ] ] ] ] ) ) ) / U K I T E E E E E W %.e.&XkXuXxXxXxX",
"xXxXxXxXoXxXxXxXyXzXOX X[.G.V.V.D.D.A.S.A.A.A.S.Z.B.B.n..._ ! ` ..5. .' ] ) ) ) ) ) ) ) ) / U K K K T E E W :.;.w.v.%XkXuXxXxXxX",
"xXxXxXxXxXxXcX  iXiXXX X].[.G.D.D.D.A.A.D.D.D.A.S.Z.B.M.+.} _ { 6.6. .' ] ) ] ] ) ] ) ) ) / T K = K T E E :.w.y.j.c.6XaXuXxXxXxX",
"xXxXxXxXxXxX    0XeXyXXXXXOX].{.{.{.].].{.{.{.{.[.[.[.'.J.4.,. .7.8.X.' ) ,.3.p.p.p.p.p.p.i.w.q.q.t.y.y.y.y.j.T.<X2X6XqXsXiXyXxX",
"xXxXxXxXxXcXfXaX,X,X9X9XeXiXzXcXvXvXzXvXvX+X+X+X X X X}.^.W.3.@.9.9.@.o.[ 3.s.W.W.W.W.W.W.b.b.c.<X<X8X8X8X8X0X0X6X4X,X7XhXkXdXxX",
"xXxXxXxXxXxXfXsX,X;X>X:X4X6XsXaXaXaXaXdXcXcXvXzXzXzXzXiXeXQ.W.d.J._.J.s.s.b.Q.8X8X8X8X8X8X8X8X1X6X5X0X0X6X6X5X4X,X>XF #X$XjXdXxX",
"xXxXxXxXxXxXcXtX8XT.z.D P.>X:X,X,X,X4X6XqXqXqX9X9XqXqXqXqXqX0XwXeXeXeXwX0X0X0X0X6X1X1X2X2X2X,X,X,X,X,X:X:X:X:X-XS b n #XbXnXfXxX",
"xXxXxXxXxXxXxX).~.E.u.t.g.z.z.z.z.l.l.;X;X;X;X;X;X>X:X:X3X4X5X5X5X5X5X5X5X5X4X3X:X:X>X-X-X-X-X-XP.k.F D D D A M h p y H jXmXfXxX",
"xXxXxXxXxXxXxX.X|._.d.4.<.r.r.r.r.t.t.t.g.g.g.g.N V S F %X-X>X>X>X>X>X>X>X>X-X%XF S B M M M M v l h h s s s p e e 5 6 C 9XfXcXxX",
"xXxXxXxXxXxXxX.X}.`.F.7.o.#.#.#.#.,.;.;.r.i.r.r.q.q.t.C N V V g.g.g.V V V V V N m j s p p p p p e e 3 : : : : ; = ; 6 t.~.xXxXxX",
"xXxXxXxXxXxXxX.XOX`.F.M.n.n.C.C.n.+.#.#.2.0.2.1.,.:.;.;.=.w -.;.;.;.-.-.=.=.=.=.w w q q q q q q 3 ; Y I K K I U T P 5 t.~.oXxXxX",
"xXxXxXxXxXxXxX.XOX`.F.B.M.M.Z.V.C.n.7.7.n.n.7.O... . ._ U I R ( ( ( R R T T T T T U U U U I K = * = I T U U T T R ~ 5 t.~.xXxXxX",
"xXxXxXxXxXxXxX.XOX`.F.M.n.M.V.V.M.M.M.M.m.7.O.O.8.n.7...! R ` | | | ` _ ( / / / / / E E E T I K = = I T T T T T T ~ 5 t.~.xXxXxX",
"xXxXxXxXxXxXxX.XOX`.F.n.7.n.B.B.M.n.M.M.n.+.O.6.n.N.8.O._ Q  .5.X.X. .' ' ) ) ) ) ( / E E E T I = = I T T T T T T P 5 t.~.xXxXxX",
"xXxXxXxXxXxXxX.X|._.F.6.O.7.M.M.n.n.M.n.+.+.7.8.8.8.6...Q Q  .5.X.X. .' ' ) ) ) ) ( E E E E U I = = I U U T T T U P 5 t.~.xXxXxX",
"xXxXxXxXxXxXxX.X|._.0.X...X.8.8.6.6.8.7.} } 7.8.6.6.X.{ R Q  .X.X. . .| ' ] ) ) ( / E R E E U K = = K U U U T T U P 5 t.~.oXxXoX",
"xXxXxXxXxXxXxX.X|._.0.X. ...6.6.....6...! ! { X.X...| _ U R {  . .'  .' ' ] ) ) / E E T E E U K = = K U U T U U U P 4 t.~.xXxXoX",
"xXxXxXxXxXxXyXtX~.W.d.4.1.1.2.2.1.@.X.| R R _ |  .| ` Q 8 I ` | ' ' ' ' ] ) ) / / E T T E E U K = = ~ &.&.&.&.$.;.q.j h.!.).).oX",
"xXxXoXxXxXyXgX9X9X8XE.s.i.p.4.4.4.4.@.| Q R ` | | ` _ R * = E ) ] ] ' ' _ ( / / E E T T E E U K = 7 -.;.;.;.w.r.u.x.l.I.U.!.).xX",
"xXxXoXxXxXyX1X:X:X;XT.c.j.s.s.s.s.s.d.i.r.r.i.i.i.i.i.r.f f ;.>.>.>.3.>.>.>.r.r.r.w.w.w.w.w.w.q.q.q.t.u.u.t.g.v.x.I.:X-X#X;XrXxX",
"xXxXoXxXxXtX2X=XF k.k.l.I.T.T.T.T.T.c.c.x.x.T.E.c.c.c.x.z.z.j.y.a.a.a.a.y.j.c.c.c.x.x.x.x.x.x.z.z.z.l.I.I.I.l.l.I.I.F #X#X>XrXxX",
"xXxXxXxXxXyX!.U.D B A S F F F #X-X-XI.l.I.;X<X<X<X<X<X<X;X;Xx.x.x.c.x.x.x.x.<X<X<X<X;X;X;X;X;XI.I.-X-X-X-XP.F F D S H #X%X2XtXxX",
"xXxXxXxXoXoX).!.h.g i g n n v b S S S S D F F k.k.k.P.-X-XP.l.l.l.l.l.l.l.l.I.-X-XP.k.k.k.F F D S S S S B b v n g n @X#X9XtXyXxX",
"xXxXxXxXoXoXxX).K.u u u y y y u g g l n v v b b b B B S S S S D D D D D D S S S S B B b b b v v n l g g h u y y t J @XhXiXxXoXxX",
"xXxXxXxXoXoXxX).    x h 9 > , , 1 9 9 9 t y y y y u i i i i g g g g g g g g i i i i u y y y t t t 9 9 1 1 , , > 1 J $XbXdXxXoXxX",
"xXxXxXxXoXoXoXoX).Q.h.z e X . . o + + @ O O O O 2 , < < < 0 9 t t t t t t 9 0 < < < , > O O O O @ + o o . X X + 1 @X*XnXfXxXoXxX",
"xXxXxXxXxXxXxXxXxX/.j.q.q % # X # $ X o . . . o o + @ @ O O > > > > > > > > @ O @ @ + + o . . . . o # $ $ $ % 3 r @X*XnXfXxXxXxX",
"xXxXxXxXxXxXxXxXxX).E.t.q * % $ % % % $ # # $ $ # X X X . . X X X X X X X X X X X # $ % % $ # X $ % % & & & * r c #XjXlXfXxXxXxX",
"xXxXxXxXxXxXxXxXxXyX!.j.-.7 & % * = = * % % & & % % $ # X # $ % % % % % % % % % % % * = = & % % & * = = = = = k @X&XwXfXxXxXxXxX",
"xXxXxXxXxXxXxXxXxXxXyXQ.r.*.; * = K K = * * = = * & % % $ % & = = = = = = * & & & * = K K = & & = K K I I L 4 c &X5XiXxXxXxXxXxX",
"xXxXxXxXxXxXxXxXoXxXxX~.j.q.q = = K K K = = K K = = = * % & = K K K K I K K = * = = K I I = & & = K I I I 4 a g.8XiXyXoXxXxXxXxX",
"xXxXxXxXxXxXxXxXxXxXxX).Q.t.*.= = = K K = = K K K K = = & * K I I I I I I K = = = K I I I K & & K I I K Y a c %XrXxXxXxXxXxXxXxX",
"xXxXxXxXxXxXxXxXxXxXxXyX9Xv.=.- & * K I K = = = I I = = & * K I I I I I I I = = = K I I I K & & K I I I P k @XhXiXoXoXxXxXxXxXxX",
"xXxXxXxXxXxXxXxXxXxXxXxXyXQ.t.f e w w *.=.=.w w *.%.q 7 ; ; 7 ~ ~ ~ ~ ~ ~ ~ 7 7 7 %.%.*.*.=.w w =.*.*.=.a c $XjXiXxXoXxXxXxXxXxX",
"xXxXxXxXxXxXxXxXxXxXxXxXxX/.L.V x x z t.t.t.z z t.q.w w e e w =.-.-.-.-.-.=.w w w =.q.t.t.z x x z t.t.z m H $XhXiXxXoXxXxXxXxXxX",
"xXxXxXxXxXxXxXxXxXxXxXxXxXyX!.U.Z v M M V V V V C z j j j j j j t.t.t.t.t.j j j j j z C V V V M M M M M b H %X6XiXxXxXxXxXxXxXxX",
"xXxXxXxXxXxXxXxXxXxXxXxXxXpXyX!.h.n n v b B b b B M M B V B Z Z Z Z Z Z Z Z A V M M M B b b b b v n n n n D 9XiXpXxXxXxXxXxXxXxX",
"xXxXxXxXxXxXxXxXxXxXxXxXxXxXxX(.R.h.h.h.K.K.K.K.L.L.L.L.U.Y.Y.Y.Y.Y.Y.Y.Y.Y.Y.U.L.L.L.L.K.K.K.K.h.h.h.h.h.R.(.xXxXxXxXxXxXxXxXxX",
"xXxXxXxXxXxXxXxXxXxXxXxXxXxXxX).(./././.(.(.(.(./.(.(.(.(.(.(.(.(.(.(.(.(.(.(.(.(.(.(.(.(.(.(.(./././././.(.).xXxXxXxXxXxXxXxXxX",
"xXxXxXxXxXxXxXxXxXxXxXxXxXxXxXxXxXxXxXxXxXxXxXxXxXxXxXxXxXxXxXxXoXoXxXxXxXxXxXxXxXxXxXxXxXxXxXxXxXxXxXxXxXxXxXxXxXxXxXxXxXxXxXxX",
"xXxXxXxXxXxXxXxXxXxXxXxXxXxXxXxXxXxXxXxXxXxXxXxXxXxXxXxXxXxXxXxXoXxXxXxXxXxXxXxXxXxXxXxXxXxXxXxXxXxXxXxXxXxXxXxXxXxXxXxXxXxXxXxX",
"xXxXxXxXxXxXxXxXxXxXxXxXxXxXxXxXxXxXxXxXxXxXxXxXxXxXxXxXxXxXxXxXxXxXxXxXxXxXxXxXxXxXxXxXxXxXxXxXxXxXxXxXxXxXxXxXxXxXxXxXxXxXxXxX"
};
