/* XPM */
static char *_8a6073b70584820af73fa94e86b89eboBHTqc6CZsGh37Gd[] = {
/* columns rows colors chars-per-pixel */
"64 80 93 2 ",
"   c #472201",
".  c #482302",
"X  c #482403",
"o  c #492504",
"O  c #4C2808",
"+  c #582B01",
"@  c #763801",
"#  c #4B4B4B",
"$  c #4E4E4E",
"%  c #5A5A5A",
"&  c gray39",
"*  c #894201",
"=  c #9C4A01",
"-  c #9D4C04",
";  c #914F12",
":  c #AF5401",
">  c #B56013",
",  c #C47100",
"<  c #C67507",
"1  c #CA7F19",
"2  c #9D7048",
"3  c #8E7864",
"4  c #DD9500",
"5  c #ECB100",
"6  c #F4C400",
"7  c #A8805C",
"8  c #95806D",
"9  c #9A8674",
"0  c #9E8B7A",
"q  c #CDA37F",
"w  c #808080",
"e  c #868686",
"r  c #898989",
"t  c gray56",
"y  c #939393",
"u  c gray58",
"i  c gray60",
"p  c gray62",
"a  c #AA9989",
"s  c #B4A597",
"d  c #B8A99C",
"f  c gray63",
"g  c gray66",
"h  c #ACACAC",
"j  c gray69",
"k  c #CFA884",
"l  c #D1AB88",
"z  c #D3AE8D",
"x  c #C4AA92",
"c  c #D5B293",
"v  c #D7B597",
"b  c #D9B99D",
"n  c #8080FF",
"m  c #8585FF",
"M  c #8A8AFF",
"N  c #8F8FFF",
"B  c #9191FF",
"V  c #9797FF",
"C  c #9898FF",
"Z  c #9C9CFF",
"A  c #A2A2FF",
"S  c #A5A5FF",
"D  c #AAAAFF",
"F  c #B2B2FF",
"G  c #B5B5FF",
"H  c #B8B8FF",
"J  c #BEBEFF",
"K  c #C0C0C0",
"L  c #D7CEC7",
"P  c #D7D7D7",
"I  c gray85",
"U  c gainsboro",
"Y  c #EBDACB",
"T  c #E1DBD6",
"R  c #EEE0D4",
"E  c #C7C7FF",
"W  c #CDCDFF",
"Q  c #D3D3FF",
"!  c #E2E2E2",
"~  c gray93",
"^  c #F1EBE5",
"/  c #F1EEEB",
"(  c #E1E1FF",
")  c #E6E6FF",
"_  c #EAEAFF",
"`  c #EDEDFF",
"'  c #F3F3F3",
"]  c #F4F4F4",
"[  c #F3F3FF",
"{  c #F5F5FF",
"}  c #FBFBFA",
"|  c #FBFBFF",
" . c white",
/* pixels */
" . . . . . . . . . . . . . . . . . . . . . . . . . . . . . . . . . . . . . . . . . . . . . . . . . . . . . . . . . . . . . . . .",
" . . . . . . . . . . . . . . . . . . . . . . . . . . . . . . . . . . . . . . . . . . . . . . . . . . . . . . . . . . . . . . . .",
" . . . . . . . . . . . . . . . . . . . . . . . . . . . . . . . . . . . . . . . . . . . . . . . . . . . . . . . . . . . . . . . .",
" . . . . . . . . . . . . . . . . . . . . . . . . . . . . . . . . . . . . . . . . . . . . . . . . . . . . . . . . . . . . . . . .",
" . . . . . . . . . . . . . . . . . . . . . . . . . . . . . . . . . . . . . . . . . . . . . . . . . . . . . . . . . . . . . . . .",
" . . . . . . . . . . . . . . . . . . . . . . . . . . . . . . . . . . . . . . . . . . . . . . . . . . . . . . . . . . . . . . . .",
" . . . . . . . . . . . . . . . . . . . . . . . . . . . . . . . . . . . . . . . . . . . . . . . . . . . . . . . . . . . . . . . .",
" . . . . . . . . . . . . . . . . . . . . . . . . . . . . . . . . . . . . . . . . . . . . . . . . . . . . . . . . . . . . . . . .",
" . . . . . . . . . . . . . . . . . . . . . . . . . . . . . . . . . . . . . . . . . . . . . . . . . . . . . . . . . . . . . . . .",
" . . . . . . . . . . . . . . . . . . . . . . . . . . . . . . . . . . . . . . . . . . . . . . . . . . . . . . . . . . . . . . . .",
" . . . . . . . . . . . . . . . . . . . . . . . . . .~ } ] ] ] ' ' ' ' ~ ' ~ ~ ' ' ' ~  . . . . . . . . . . . . . . . . . . . . .",
" . . . . . . . . . . . . . . . . .} } } } } } } } r e e e e e w w w w w w w w w w w w j  .}  . . . . . . . . . . . . . . . . . .",
" . . . . . . . . . . . . . . .~ e w w w w & & & & & & & & & & & & & & & & & & & & & & & & w w w w w w w p I  . . . . . . . . . .",
" . . . . . . . . . . . . . .g p K K K K K K K K K # # # # # # # # # # # # # # # # # # j j j j j j j j j w w &  . . . . . . . . .",
" . . . . . . . . . . . . .P p t t t t t t t t t p K K K K K K K K K K K K j j j j j j p w w w w w w w w w w & m  . . . . . . . .",
" . . . . . . . . . . . . .U t t t t t t t t t t t t t t t t t e e e e e e e w w w w w w w w w w w w w w w w & M  . . . . . . . .",
" . . . . . . . . . . . . . .& & & t t t t t t t t t t t t t t e e e e e e e w w w w w w w w w w w w w & & & n {  . . . . . . . .",
" . . . . . . . . . . . . . ./ @ @ & & & & & & & t t t t t t t e e e e e e e w w w w w w & & & & & & & + + + J  . . . . . . . . .",
" . . . . . . . . . . . . . .; * *   @ @ @   @ @ & & & & & & & & & & & & & & & & & & & & + + + + + + + @ @ @ .  . . . . . . . . .",
" . . . . . . . . . . . . .0 = = *   * * *   * * @ @ @ @ @ @ @   @ @ @ @ @ @ @ @ @ @ @ @ @ @   @ @ @ @ * * * @ m  . . . . . . . .",
" . . . . . . . . . . . .} > : :   : = = =   = = * * * * * * *   * * * * * * * * * * * * * *   * * * * = = = = o `  . . . . . . .",
" . . . . . . . . . . . .x : : : @ : : : : @ : : = = = = = = =   = = = = = = = = = = = = = =   @ = = = = = = = @ m  . . . . . . .",
" . . . . . . . . . . . .< , , : @ : : : @ : : : : : : : : :   : : : : : : : : : : : : : = = @   = = = = = = = = . )  . . . . . .",
" . . . . . . . . . . .2 , , , , @ , , , @ , , , , , , : : :   : : : : : : : : : : : : : = = *   = = = = = = = =   n  . . . . . .",
" . . . . . . . . . . .Y , , , @ 4 4 4 4 @ 4 4 , , , , , , ,   : : : , : : : : : : : : : : = =   = = = = = = = = @ Z  . . . . . .",
" . . . . . . . . . . .1 , 4 4 @ 4 4 4 4 = 4 4 4 4 , , , , ,   , : : , : : : : : : : : : : = =   = = = = = = = = = X [  . . . . .",
" . . . . . . . . . .7 4 4 4 4 = 4 4 4 4 = 4 4 4 4 4 , , , :   , : : , : : : : : : : : : : : =   = = = = = = = = =   m  . . . . .",
" . . . . . . . . . .z 4 4 4 = 4 5 5 5 5 = 4 4 4 4 4 4 , , =   , , : , : : : : : : : : : : : =   * = = = = = = = =   N  . . . . .",
" . . . . . . . . . .R 4 4 5 = 5 5 5 5 , 4 5 4 4 4 4 4 , , *   , , : , : : : : : : : : : : : =   @ = = = = = = = = @ A  . . . . .",
" . . . . . . . . . .4 4 5 5 = 6 6 6 6 , 5 5 5 5 4 4 4 4 , @   , , , , : : : : : : : : : : : =   + = = = = = = = = = X {  . . . .",
" . . . . . . . . .- 4 5 5 5 = 6 6 6 6 , 6 6 5 5 4 4 4 4 4   @ , , 4 : : : : : : : : : : : : = +   = = = = = = = * @   K  . . . .",
" . . . . . . . .f K K 5 5 = 6 6 6 6 6 , 6 6 6 5 5 4 4 4 4   * , , 4 : : : : : : : : : : : : = @   = = = = = = * @ K K j w  . . .",
" . . . . . . .! t t p K K K 6 6 6 6 4 4 6 6 6 5 5 4 4 4 4   = , , 4 , : : : : : : : : : : : = *   = = = * @ K K K j p p w M  . .",
" . . . . . . .j w t t t t p K K K K K K K 6 6 5 5 4 4 4 4   : , , 4 , : : : : : : : : : : : = * K K K K K K j p t t t w # B  . .",
" . . . . . . .p & w t t t t t t t t p p j K K K K K K K K K = : , 4 , : = = K K K K K K K K K j p t t t t t t t t t w & # m  . .",
" . . . . . . . .$ # & w t t t t t t t t t t t t t t t p p j K K K K K K K K j p p t t t t t t t t t t t t t t t w & # # n Q  . .",
" . . . . . . . .^ = # # & w t t t t t t t t t t t t t t t t t t t t t t t t t t t t t t t t t t t t t t t t w & # # +   V  . . .",
" . . . . . . . .q : : = # # # # # # & w t t t t t t t t t t t t t t t t t t t t t t t t t t t t w & # # # # # # + + @   m  . . .",
" . . . . . . . .k , , : @ : : : = @ # # # # # # # # & w t t t t t t t t t t t t w & # # # # # # # # + + + + +   @ @ @   M  . . .",
" . . . . . . . .l 4 4 4 : , , , , = : @ : : : = @ @ # # # # # # # # # # # # # # # # + + + + + + + + @ @ @ @ @ @ * * @   M  . . .",
" . . . . . . . .c 4 4 5 : 4 4 4 4 = , @ , , , : = = = = + + * * * * * @ @ @ @ @ @ @ @ @ @ @ @ @ + @ * * * @ * * = = @   M  . . .",
" . . . . . . . .v 4 4 4 : 5 5 5 5 : 4 * 4 4 4 : : : : : @ @ = = = = * * * * * * * * * * * * * @ + * = = = @ = = = = @   M  . . .",
" . . . . . . . .v 4 4 4 = 5 5 5 5 : 5 * 5 5 5 , , , , , * * : : : : = = = = = = = = = = = = = @ + * = = @ = = = = = @   M  . . .",
" . . . . . . . .v , 4 4 = 4 4 5 5 : 5 4 * 4 = = 4 4 4 , * * , , , , : , : : : : : : : : = = = @ + * = @ = = = = = = @   M  . . .",
" . . . . . . . .c , 4 4 = 4 4 4 4 = 4 4 + 4 = = 4 4 4 , * * , , , , : , : : : : : : * = = = = @ + * = @ = = @ @ @ = @   M  . . .",
" . . . . . . . .v , , , = 4 4 4 4 = 4 4 + 4 4 4 4 , , , * * , , , , : , : : : : : : * = = = = @ + * = @ = @ = = @ = @   M  . . .",
" . . . . . . . .b , , , * , , 4 4 = 4 4   4 4 , , , , , * * , , , : : , : : : : : : * = = = = @ + * @ = = @ = = @ = @   M  . . .",
" . . . . . . . .b , , , * , , , , = , ,   = , , = = = , @ @ , , , : : , : : : : : = * = = = = @ + * @ = @ = @ = @ = @   M  . . .",
" . . . . . . . .l , , , * , , , , = , , + * , = , , , * @ @ , , : : , : : : : : = = * = = = = @ + * @ = = @ @ = @ = @   M  . . .",
" . . . . . . . .f , , , * , , , , * , , * + , * , , , * + + , : : : , : : : : : = = * = = = = @ + * = @ = = = @ = = @   p  . . .",
" . . . . . . .i p p : , * , , , , * , , =   , * , , , * + + : : : : , : : : : = = = * = = = = @ + * = @ = = @ @ = = p p t $ |  .",
" . . . . . .y w w t p p * : , , , * , , ,   , , * * * :     : : : : : : : = = = = = * = = = = @ + * = = @ @ = = p p t t w # m  .",
" . . . . . .p w w w w t p p p p p p = : =   , , : : : =     = = : : = = = = = = = = * = = = = @ + * p p p p p p t w w w w # V  .",
" . . . . . .f & w w w w w w w w t t t p p p p p p p p p p p * = = = = = = * p p p p p p p p p p p p t t t w w w w w w w & # M  .",
" . . . . . . .$ & & & w w w w w w w w w w w w w w w t t t t p p p p p p p p t t t t w w w w w w w w w w w w w w w w & & # n `  .",
" . . . . . . . .# # # & & & & w w w w w w w w w w w w w w w w w w w w w w w w w w w w w w w w w w w w w w w & & & # # # n  . . .",
" . . . . . . . . ..   # # # # # # & & & & w w w w w w w w w w w w w w w w w w w w w w w w w w & & & & # # # # # #     n  . . . .",
" . . . . . . . . .9 +             # # # # # # # # & & & & & w w w w w w w w & & & & & # # # # # # # #             +   m  . . . .",
" . . . . . . . . .[   + +   + + +                 # # # # # # # # # # # # # # # # # #                     + + + +   n E  . . . .",
" . . . . . . . . . .T + + +   + + + + +   +                                                   +   + + + + + + + +   V  . . . . .",
" . . . . . . . . . .s @ @ @   + + + + +   + + + + + + +                           + + + + + + +   + + + + + + @ @   N  . . . . .",
" . . . . . . . . . .3 @ @ @   @ @ @ + +   + + + + + + +   + + + + + + + + + + +   + + + + + +   + + @ @ @ @ @ @ +   m  . . . . .",
" . . . . . . . . . .{ O * @ + @ @ @ @ @ @ + @ @ @ + + +   + + + + + + + + + + + + @ @ @ @ @ @   @ @ @ @ @ @ @ *   n W  . . . . .",
" . . . . . . . . . . .L * * @ + * @ @ @ @ + @ @ @ + + @   @ @ @ @ @ @ @ @ @ @ @ + @ @ @ @ @ @   @ @ @ * * * * @   Z  . . . . . .",
" . . . . . . . . . . .8 * * *   * * * * * + * * * + + @   @ @ @ @ @ @ @ @ @ @ @ + * * * * * *   * * * * * * * +   m  . . . . . .",
" . . . . . . . . . . .[ o * * + @ * * * * + * * * @ @ * + @ * * * * * * * * * + @ * * * * * @   * * * * * * @   n J  . . . . . .",
" . . . . . . . . . . . .d * * @ + * * * * + * * * @ @ * @ + * * * * * * * * * + @ * * * * * @ + * * * * * * +   m  . . . . . . .",
" . . . . . . . . . . . ._ X * *   * * * * + @ * * * @ @ *   * * * * * * * * * + @ * * * * * + @ * * * * * @   n Q  . . . . . . .",
" . . . . . . . . . . . . .a * *   * * * * @ + * * * @ @ *   * * * * * * * * * + @ * * * * *   @ * * * * * @   V  . . . . . . . .",
" . . . . . . . . . . . . .{ o @   @ * * * * + * * * @ @ *   * * * * * * * * * + * * * * * *   * * * * * @ + n [  . . . . . . . .",
" . . . . . . . . . . . . . .h t +   + @ * @ + @ * * @ @ *   * * * * * * * * * + * * * * @ +   + @ @ @ + t w %  . . . . . . . . .",
" . . . . . . . . . . . . .u & & t t t t t t t t t + @ @ +   + @ * * * * * @ +   + @ + t t t t t t t t t & & # n  . . . . . . . .",
" . . . . . . . . . . . . .u & & & & & & w w w w w t t t t t t t t t t t t t t t t t t w w w w w & & & & & & # m  . . . . . . . .",
" . . . . . . . . . . . . .| $ & & & & & & & & & & & & & w w w w w w w w w w w w & & & & & & & & & & & & & # n [  . . . . . . . .",
" . . . . . . . . . . . . . .! # & & & & & & & & & & & & & & & & & & & & & & & & & & & & & & & & & & & & # # C  . . . . . . . . .",
" . . . . . . . . . . . . . ._ V # # # # # # # & & & & & & & & & & & & & & & & & & & & & & # # # # # # # n m S  . . . . . . . . .",
" . . . . . . . . . . . . . . . . .N V V V C D $ # # # # # # # # # # # # # # # # # # # # # n F V C V V N (  . . . . . . . . . . .",
" . . . . . . . . . . . . . . . . . . . . . . . .S F G F F F F F F F F F F F F F F G G H D [  . . . . . . . . . . . . . . . . . .",
" . . . . . . . . . . . . . . . . . . . . . . . . . . . . . . . . . . . . . . . . . . . . . . . . . . . . . . . . . . . . . . . .",
" . . . . . . . . . . . . . . . . . . . . . . . . . . . . . . . . . . . . . . . . . . . . . . . . . . . . . . . . . . . . . . . ."
};
