/* XPM */
static char *_6b76b242bf84cecb3a84c5e012c3bc153KamuTI2fi3zwT4[] = {
/* columns rows colors chars-per-pixel */
"64 64 10 1 ",
"  c #C2B280",
". c #C3B384",
"X c #C4B68B",
"o c #C2B383",
"O c #C3B588",
"+ c #C2B382",
"@ c #C2B281",
"# c #C3B589",
"$ c #C2B27F",
"% c white",
/* pixels */
"           .XX.                .XX.    .XX.        .XXooXX.     ",
"           oOOo                oOOo    oOOo        oOO++OOo     ",
"           @oo@                @oo@    @oo@        @oo@@oo@     ",
" @oo@@oo@                @oo@@oo@        @oo@@oo@        @oo@   ",
" oOOooO#o                o#OooO#o        o#OooO#o        o##o   ",
" oOO++O#o                o#OooO#o        o#OooO#o        o##o   ",
" @oo@@oo@                @oo@@oo@        @oo@@oo@        @oo@   ",
"   @oo@        @oo@@oo@                            @oo@@oo@     ",
"   o##o        o#OooO#o                            o#OooO#o     ",
"   o##o        o#OooO#o                            o#OooO#o     ",
"   @oo@        @oo@@oo@                            @oo@@oo@     ",
"                                             @oo@@oo@           ",
"                                             o#OooO#o           ",
"                                             o#OooO#o           ",
"                                             @oo@@oo@           ",
".o@@oo@                @oo@    @oo@                             ",
"XOooO#o                o##o    o##o                             ",
"XOooO#o                o##o    o##o                             ",
".o@@oo@                @oo@    @oo@                             ",
"                         @oo@@oo@            @oo@    @oo@       ",
"                         o#OooO#o            o##o    o##o       ",
"                         o#OooO#o            o##o    o##o       ",
"                         @oo@@oo@            @oo@    @oo@       ",
"   @oo@@oo@        @oo@@oo@            @oo@@oo@                 ",
"   o#OooO#o        o#OooO#o            o#OooO#o                 ",
"   o#O++O#o        o#OooO#o            o#OooO#o                 ",
"   @oo@@oo@        @oo@@oo@            @oo@@oo@                 ",
" @oo@@oo@                                                       ",
" oOO++O#o                                                       ",
" oOOooO#o                                                       ",
" @oo@@oo@                                                       ",
"       @oo@                    @oo@@oo@    @oo@    @oo@@oo@@oo@ ",
"       o##o                    o#OooO#o    o##o    o#OooOOooOOo ",
"       o##o                    o#O++O#o    o##o    o#O++OO++OOo ",
"       @oo@                    @oo@@oo@    @oo@    @oo@@oo@@oo@ ",
"                                 @oo@                @oo@@oo@   ",
"                                 o##o                o#O++O#o   ",
"                                 o##o                o#OooO#o   ",
"                                 @oo@                @oo@@oo@   ",
"           @oo@@oo@                                @oo@    @oo@ ",
"           o#OooO#o                                o##o    o#Oo ",
"           o#OooO#o                                o##o    o#Oo ",
"           @oo@@oo@                                @oo@    @oo@ ",
"                                     @oo@@oo@                   ",
"                                     o#OooO#o                   ",
"                                     o#OooO#o                   ",
"                                     @oo@@oo@                   ",
"                   @oo@                        @oo@             ",
"                   o##o                        o##o             ",
"                   o##o                        o##o             ",
"                   @oo@                        @oo@             ",
"                             @oo@            @oo@    @oo@    @o.",
"                             o##o            o##o    o##o    oOX",
"                             o##o            o##o    o##o    oOX",
"                             @oo@            @oo@    @oo@    @o.",
".o@    @oo@    @oo@            @oo@@oo@                    @oo@ ",
"XOo    o##o    o##o            o#OooO#o                    o#Oo$",
"XOo    o##o    o##o            o#OooO#o                    o#Oo ",
".o@    @oo@    @oo@            @oo@@oo@                    @oo@ ",
" @oo@    @oo@                @oo@            @oo@    @oo@       ",
"$oO#o    o##o                o##o            o##o    o##o       ",
" oOOo    oOOo                oOOo            oOOo    oOOo       ",
" @oo@    @oo@                @oo@            @oo@    @oo@       ",
"                                                                "
};
