/* XPM */
static char *b9d1de4a27a446eae838bbd929c79e86M5QaAAvfl1GypeWV[] = {
/* columns rows colors chars-per-pixel */
"64 64 244 2 ",
"   c None",
".  c #553511",
"X  c #593A1B",
"o  c #593D3F",
"O  c #573B3E",
"+  c #5A3D24",
"@  c #576A03",
"#  c #5C7101",
"$  c #647301",
"%  c #657B00",
"&  c #6B7D01",
"*  c #6A7608",
"=  c #667817",
"-  c #716F0A",
";  c #614936",
":  c #5E6E26",
">  c #6D712F",
",  c #5C4136",
"<  c #6A5351",
"1  c #5F7052",
"2  c #7E6946",
"3  c #6E6E51",
"4  c #5C4965",
"5  c #604D64",
"6  c #685873",
"7  c #767072",
"8  c #5B565E",
"9  c #543B4F",
"0  c #A63B03",
"q  c #A54319",
"w  c #867B1A",
"e  c #A34A2F",
"r  c #907133",
"t  c #A06F38",
"y  c #E57806",
"u  c #D97206",
"i  c #97584C",
"p  c #AB5B4B",
"a  c #8D6E54",
"s  c #B1695B",
"d  c #A87153",
"f  c #847577",
"g  c #8A7A79",
"h  c #9A7D75",
"j  c #8C6E65",
"k  c #B5776A",
"l  c #B1776D",
"z  c #6C8200",
"x  c #6E840A",
"c  c #738501",
"v  c #7B8D02",
"b  c #748607",
"n  c #6D831A",
"m  c #76841C",
"M  c #7F9009",
"N  c #778728",
"B  c #768836",
"V  c #6D822F",
"C  c #798A4B",
"Z  c #859304",
"A  c #8D9A04",
"S  c #86940A",
"D  c #929E06",
"F  c #879210",
"G  c #9BA704",
"H  c #9FA818",
"J  c #A3AE09",
"K  c #A2AD05",
"L  c #A9B407",
"P  c #B3BD07",
"I  c #A1A918",
"U  c #B1BB1B",
"Y  c #8B8827",
"T  c #87962A",
"R  c #979A28",
"E  c #8B9938",
"W  c #969B37",
"Q  c #8E892F",
"!  c #A6983A",
"~  c #AC8E38",
"^  c #97A335",
"/  c #AAA538",
"(  c #ABB431",
")  c #DE8813",
"_  c #E8850A",
"`  c #E48511",
"'  c #E4961B",
"]  c #E89F22",
"[  c #D9AB39",
"{  c #DCAE33",
"}  c #EBA723",
"|  c #F3BA2B",
" . c #E8A937",
".. c #E8BA36",
"X. c #EDB830",
"o. c #DE9421",
"O. c #B6C00B",
"+. c #F7C32E",
"@. c #FBCC33",
"#. c #F8C835",
"$. c #FED134",
"%. c #EDC239",
"&. c #898A55",
"*. c #869657",
"=. c #939350",
"-. c #B79B59",
";. c #B08E4C",
":. c #9BA651",
">. c #B9A548",
",. c #A6AF58",
"<. c #B8AB5A",
"1. c #ACB55A",
"2. c #AFB34E",
"3. c #938E6F",
"4. c #AE9D6F",
"5. c #A7946A",
"6. c #B89E6A",
"7. c #BA867D",
"8. c #AA9979",
"9. c #B49677",
"0. c #AA886E",
"q. c #9BA26A",
"w. c #9BA378",
"e. c #BBA46B",
"r. c #B3B965",
"t. c #AFA17D",
"y. c #A7A772",
"u. c #B2A27D",
"i. c #BCAD7C",
"p. c #B6A878",
"a. c #BEB27C",
"s. c #B7B872",
"d. c #ACAB69",
"f. c #CF994D",
"g. c #C9AA4A",
"h. c #D8B54B",
"j. c #C9AA58",
"k. c #CCB459",
"l. c #D8B956",
"z. c #D7AC50",
"x. c #E8B749",
"c. c #E8B959",
"v. c #EBB34C",
"b. c #CB9272",
"n. c #C6A76B",
"m. c #D4A968",
"M. c #DAB969",
"N. c #C6AB79",
"B. c #C2B27E",
"V. c #C3B87B",
"C. c #D4BA79",
"Z. c #D3AE6E",
"A. c #E5AA65",
"S. c #E6B570",
"D. c #E09D5E",
"F. c #BEC072",
"G. c #DEC15A",
"H. c #E1C156",
"J. c #E3C459",
"K. c #EBCB5C",
"L. c #E8C85B",
"P. c #F5C454",
"I. c #C0C374",
"U. c #DCC276",
"Y. c #DDC165",
"T. c #EBCD63",
"R. c #E4C667",
"E. c #EFD062",
"W. c #F1D262",
"Q. c #E7C976",
"!. c #F2CB73",
"~. c #6E7190",
"^. c #6E71B1",
"/. c #5A678E",
"(. c #7478CA",
"). c #8C7691",
"_. c #BE7CA8",
"`. c #7C8595",
"'. c #7A81C0",
"]. c #959294",
"[. c #BD8C83",
"{. c #B69B98",
"}. c #AC968E",
"|. c #9DA882",
" X c #BDAD8B",
".X c #B9A985",
"XX c #BCB387",
"oX c #AEA59A",
"OX c #BCAD92",
"+X c #BCAD9C",
"@X c #B6A697",
"#X c #BBB597",
"$X c #AFA983",
"%X c #8B8AB6",
"&X c #9790B3",
"*X c #A999A9",
"=X c #A59BBB",
"-X c #B695B7",
";X c #B18BB4",
":X c #B8A9A5",
">X c #AAA4B8",
",X c #B8A7B5",
"<X c #B9B2AD",
"1X c #9FA0A2",
"2X c #C49C94",
"3X c #C99B99",
"4X c #C99391",
"5X c #C4AB87",
"6X c #C2B280",
"7X c #C2B38B",
"8X c #CCB687",
"9X c #D3B885",
"0X c #C5A898",
"qX c #D7A698",
"wX c #C2B493",
"eX c #C8B597",
"rX c #D7AF8F",
"tX c #C695A8",
"yX c #C8A9A5",
"uX c #C7B6AA",
"iX c #C6B9B4",
"pX c #CFB1AD",
"aX c #D6C794",
"sX c #E2CE93",
"dX c #CAC5AC",
"fX c #D4C7B8",
"gX c #D4C6B2",
"hX c #E2D3BB",
"jX c #9B97DA",
"kX c #9088D2",
"lX c #A999C4",
"zX c #A69CD7",
"xX c #B493C8",
"cX c #B7A8C5",
"vX c #ADA7CE",
"bX c #9795E3",
"nX c #C4AAC8",
"mX c #D6C8C4",
"MX c #DAD3CA",
"NX c #D3D2D1",
"BX c #E3DAD5",
"VX c #E0D5CC",
"CX c #ECE6D6",
"ZX c #EAEAE7",
/* pixels */
"6X6X6X6X6X6X6X6X6X6X6X6X6X6X6X6X6X6XB.B.6X6X6X6X6X6X6X6X6XB.B.6X6X6X6X6X6X6X6X6X6X6X6X6X6X6X6X6X6X6X6X6X6X6X6X6X6X6X6X6X6X6X6X6X",
"6X6X6X6X6X6X6X6X6X6X6X6X6X6X6X6X6X6X7X6Xa.a.XXXXXXXXi.p.p.p.p.p.i.a.a.V.V.V.V.V.V.V.V.V.V.a.a.a.a.i.B.B.6X6X6X6X6X6X6X6X6X6X6X6X",
"6X6X6X6X6X6X6X6X6X6XB.B.6X6X6X6XXX    XXy.y.$XXX#X$Xy.q.q.q.q.q.y.y.s.s.F.I.I.I.I.I.I.F.r.r.s.s.d.d.  i.B.6X6X6X6X6X6X6X6X6X6X6X",
"6X6X6X6X6X6X6X6X6X6X6XB.B.V.V.s.      *.C *.q.w.|.w.*.C *.*.*.*.*.:.,.1.1.r.r.r.r.r.r.1.,.,.,.:.=.E   w.$X X6X6X6X6X6X6X6X6X6X6X",
"6X6X6X6X6X6X6X6X6X6XB.a.r.1.2.2.:.=.B V n N B C C C N N B B B E E W W E E E E E E E E E T T T T N N 3 7 ].oX X6X6X6X6X6X6X6X6X6X",
"6X6X6X6X6X6X6XB.B.i.e.<.( U U ( ^ E n & c v v v v v Z Z Z Z A A D D D Z c % c c c c c c c c c c c n > 1 ~.].@X X6XB.6X6X6X6X6X6X",
"6X6X6X6X6X6X6XB.p.  :./ U P L H T m x c Z A G G G G K L L K K G K G G A & # $ % % % % % % % % % % % = 1 7 `.1X+X X6X6X6X6X6X6X6X",
"6X6X6X6X6X6X6X6X    :.:.( I G A v c & c Z G K J J K J J J J I I I I I F & # $ * * * * $ $ $ $ $ $ = : 1 ~.~.%X>X+XwX7X6X6X6X6X6X",
"6X6X6X6X6X6X6X6X    |.q.=.T M v c z & z v A G G D A Z Z S F R R R R R Y - $ $ - m w - - - - - - - > 1 6 ~.^.'.jXcXiXwX6XB.6X6X6X",
"6X6X6X6X6X6X6X6X7X  @Xw.&.V V N m v c c c v A A Z c & = Q ! / >./ ! W Q Y w w Y ! ! ~ Q r r r r w > 1 /.^.(.%X=XcXiXwX6XB.6X6X6X",
"6X6X6X6X6X6X6X6X7X7XXXt.&.C C *.T Z A Z & % c v c & # Y >.l.G.G.l.g.>.! ! ~ ~ ~ g.l.h.g.>.;.;.;.t a 6 /.(.kX*XOX#XwX7X6X6X6X6X6X",
"6X6X6X6X6X6X6X6X6X6X6Xi.y.q.q.*.^ G G D & # % z z % # Y g.J.T.T.R.C.B.6X8X6X6.n.M.L.K.J.k.n.6X.X5.j 7 /.(.kX:X7X6X6X6X6X6X6X6X6X",
"6X6X6X6X6X6X6X6X6X6X6XB.i.p.q.:.( P P G c # % z z z % N ! k.J.Q.sXaXfXMXMXfXiXeXC.R.E.T.M.9XdXiXoX3.j 7 ^.^.  +X7XB.B.6X6X6X6X6X",
"6X6X6X6X6X6X6X6X6X6XB.a.p.y.q.:.( P P G c # % z z z % m Q >.l.Q.aXhXBXZXZXBXmXuX9XR.E.T.R.aXdX<XoX8.=.a ~.^.     XB.B.6X6X6X6X6X",
"6X6X6X6X6X6X6X6X6X6X6Xp.5.=.W ^ H G G D & # % z z & & = N ! k.U.gXMXZXZXZXBXmX#XC.R.E.W.T.U.6X$X$Xe.<.;.j ~.^.&XOX6XB.6X6X6X6X6X",
"6X6X6X6X6X6X6X6X6X6X6Xp.&.n S A A A A Z $ $ v Z Z Z Z S F W >.C.aXhXCXCXCXMXdXeXU.T.W.W.E.R.j.-.e.n.k.j.;.f ~.%XoXOX7X6X6X6X6X6X",
"6X6X6X6X6X6X6X6X6X6X6Xp.&.= b v v v v c # & G J J J J J J I / <.U.sXsXsXsXsXsXQ.T.E.W.W.W.K.l.j.g.j.c.l.>.=.7 ~.%X>XOX6XB.6X6X6X",
"6X6X6X6X6X6X6X6X6X6X6Xp.3.C V n x z z & & Z J P O.P O.P P L I / h.J.R.R.Y.Y.R.T.K.K.K.K.K.K.J.l.h.h.l.l.>.=.7 ~.(.zX+X6XB.6X6X6X",
"6X6X6X6X6X6X6X6X6X6X6X.X}.3.C V n z % & Z G L O.O.O.O.P P L I / g.G.K.K.J.G.G.J.J.J.H.H.J.J.J.J.c.l.h.>.=.j ~.^.kXzX:X6XB.6X6X6X",
"6X6X6X6X6X6X6X6X6X6X6X X@X|.*.B n % # & A K L P P U ( ( 2.2.,.r.k.l.L.K.J.H.G.G.J.H.H.H.H.J.R.Y.M.Z.e.5.3.7 ~.%XjXcX+X6XB.6X6X6X",
"6X6X6X6X6X6X6X6X6X6X6X6XXX.Xq.  = # @ $ Z G J L L ( 1.r.s.XX#XeXV.M.G.J.J.J.J.K.K.K.K.L.J.G.M.C.0X{.*X&X%X%X  *X:X+X7X6X6X6X6X6X",
"6X6X6X6X6X6X6X6X6X6X6X6X6XXX      : @ # F R R ^ 2.r.XXdXdXdXfXgXeX6X8X8X9XU.R.Q.Q.Q.Q.Q.U.C.9X0X{.*X&X=XlX,X  7X6X6X6X6X6X6X6X6X",
"6X6X6X6X6X6X6X6X6X6X6X6X6X6X                &.3.9.eXfXMXMXMXBXMXuX:XlXlXcXuXeXeX0X0X0XyX,X,X  :X@X XOXOXOXwX7X6XB.B.6X6X6X6X6X6X",
"6X6X6X6X6X6X6X6X6X6X6X6XB.XX                j j 7.2XpXmXBXBXBXMX<X=XjXbXzX,X:X@X{.{.*X*X=XlX  :X X6X6X6X6X6X6X6XB.6X6X6X6X6X6X6X",
"6X6X6X6X6X6X6X6X6X6X6X6X6X6X      t       a j j s s l 2XfXBXBXmX<X=XjXzX,XOX X X X X X XOXOX X7X6X6XB.B.B.B.6X6X6X6X6X6X6X6X6X6X",
"6X6X6X6X6X6X6X6X6X6X6X6X7X X    d t t t i a a i e 0 q l yXmXmXfX:X=XjXzX:X6XB.6X6X6X6X6X6X6X6X6X6X6X6X6X6X6X6X6X6X6X6X6X6X6X6X6X",
"6X6X6X6X6X6X6X6X6X6XB.7XeX+X}.8.6.-.;.d j a i i e e q s 2XpXpXuXoX&XjXzX:XB.B.6X6X6X6XB.B.B.6X6X6X6X6X6X6X6X6X6X6X6X6X6X6X6X6X6X",
"6X6X6X6X6X6X6X6X6XB.6X7XuX:X8.4.Z.k.-.5.}.0.p p s k k k [.0XpXiXoX&XjXzX:X6XB.6X6X6X6X6X6X6X6X6X6X6X6X6X6X6X6X6X6X6X6X6X6X6X6X6X",
"6X6X6X6X6X6X6X6XB.B.B.7XeX.X5.-.Y.G.g.6.0X{.s s 4XyX0X2X[.0XMXBX<X>XbXjX:X6XB.6X6X6X6X6X6X6X6X6X6X6X6X6X6X6X6X6X6X6X6X6X6X6X6X6X",
"6X6X6X6X6X6X6X6X6X6X7XwXwX9.;.g.J.L.g.n.eX0Xs s 2XpXpXyX7.2XmXMX<X>XjXzX:X7X6X6X6X6X6X6X6X6X6X6X6X6X6X6X6X6X6X6X6X6X6X6X6X6X6X6X",
"6X6X6X6X6X6X6X6X6X7XuXuX  9.;.g.J.L.g.e.0X2Xs p [.yXpXyX[.7.2XyXoX*XlXvX>X+X7X6X6X6X6X6X6X6X6X6X6X6X6X6X6X6X6X6X6X6X6X6X6X6X6X6X",
"6X6X6X6X6X6X6X6X6XwXiXiX  0.;.g.J.L.g.e.0X{.s p l 2XpXpX2X7.k l }.].*X=X    OX6XB.6X6X6X6X6X6X6X6X6X6X6X6X6X6X6X6X6X6X6X6X6X6X6X",
"6X6X6X6X6X6X6X6X7X  iX+X0.d t g.J.L.g.n.0X2Xs p l 2XpXiXyX2Xk s h h h ).kXjX:X6XB.B.6X6X6X6X6X6X6X6X6X6X6X6X6X6X6X6X6X6X6X6X6X6X",
"6X6X6X6X6X6X6X7X    iXuX@X9.;.>.H.R.Z.5XuX0Xk p 7.yXiXfXfXyX[.l j j j ).kXjX:XB.B.B.6X6X6X6X6X6X6X6X6X6X6X6X6X6X6X6X6X6X6X6X6X6X",
"6X6X6X6X6X6X6X7X    gXfXfXuX9.>.h.M.eXuXfXuXl s [.uXmXNXNXmXuX{.l i j ).&X=X  i.B.6X6X6X6X6X6X6X6X6X6X6X6X6X6X6X6X6X6X6X6X6X6X6X",
"6X6X6X6X6X6X6X6X    uXgXgXuXN.g.h.M.9XdXfXuX9.;.5XeXgXhXhXhXgXrXb.d d 0.@X0X    OXOX5X6X6X6X6X6X6X6X6X6X6X6X6X6X6X6X6X6X6X6X6X6X",
"6X6X6X6X6X6X6XB.    m.Z.C.C.m.l.J.R.U.C.9XC.j.z.l.R.!.!.!.!.!.R.x. .f.f.M.Y.k.p.*X*XOX6XB.6X6X6X6X6X6X6X6X6X6X6X6X6X6X6X6X6X6X6X",
"6X6X6X6X6X6X6XB.    f.z.l.l.c.J.K.E.K.G.l.h.h.h...%.#.@.$.@.@.@.$.#. . .c.c.Z.{.lXlX+X6XB.6X6X6X6X6X6X6X6X6X6X6X6X6X6X6X6X6X6X6X",
"6X6X6X6X6X6X6XB.    m.M.R.K.K.K.W.W.E.J.h.g.h.h.{ X.#.$.$.@.@.@.$.@.+...v.m.2X-XzXcX#X6XB.6X6X6X6X6X6X6X6X6X6X6X6X6X6X6X6X6X6X6X",
"6X6X6X6X6X6X6XB.    C.U.R.T.L.L.L.K.K.H.h.g.h.x.....@.$.$.@.| +.@.$.$.#.x.m.tXxXcXiX7X6XB.6X6X6X6X6X6X6X6X6X6X6X6X6X6X6X6X6X6X6X",
"6X6X6X6X6X6X6X6X7X    9XM.l.h.h.h.x.x.h.[ [ ..%.#.@.$.$.@.+.| | @.$.$.@.#.A.tX;X:X7X7X6X6X6X6X6X6X6X6X6X6X6X6X6X6X6X6X6X6X6X6X6X",
"6X6X6X6X6X6X6X6X7X7X  5Xm.z.[ { { { { [ { { X.X.+.+.+.+.+.| } } +.$.$.#.v.S.tX-X@X6XB.6X6X6X6X6X6X6X6X6X6X6X6X6X6X6X6X6X6X6X6X6X",
"6X6X6X6X6X6X6X6X6X6X7XN.f. .X.+.X.} ] o.o.' ' ' } } } } | | } } +.$.@.P.S.3XxXxX+XB.B.6X6X6X6X6X6X6X6X6X6X6X6X6X6X6X6X6X6X6X6X6X",
"6X6X6X6X6X6X6X6X6X6X6XN.f.] +.@.| } ' ` ` ` ` ` ` ` ) ' | X. .v.c.T.T.S.qXtXxXcX+X6XB.6X6X6X6X6X6X6X6X6X6X6X6X6X6X6X6X6X6X6X6X6X",
"6X6X6X6X6X6X6X6X6X6X6XN.f. .+.@.| } ` y y y y y y y u ) | x.D.b.qXqXyXyX  ,X:X+X7X6X6X6X6X6X6X6X6X6X6X6X6X6X6X6X6X6X6X6X6X6X6X6X",
"6X6X6X6X6X6X6X6X6X6XB.Z.z. .#.@.| } ' ` _ _ _ _ _ _ _ ' | v.b.4XtX-X-X-X  :X7X6X6X6X6X6X6X6X6X6X6X6X6X6X6X6X6X6X6X6X6X6X6X6X6X6X",
"6X6X6X6X6X6X6X6X6XB.n.z.x.#.@.@.+.| } ] ] } ] } ] ' ] } | c.4X_.xXlX:XOX X7X6XB.B.6X6X6X6X6X6X6X6X6X6X6X6X6X6X6X6X6X6X6X6X6X6X6X",
"6X6X6X6X6X6X6X6X6XB.n.z.x.P.P.P.c.v.x. . . . .z.A.A.A.c.c.S.tX;XxX,XOX6XB.6X6X6X6X6X6X6X6X6X6X6X6X6X6X6X6X6X6X6X6X6X6X6X6X6X6X6X",
"6X6X6X6X6X6X6X6X6XB.B.Z.z.A.rXrXrXS.A.v.x.v.f.b.3XtXqXqXqXpXnXcX:XOX7XB.B.6X6X6X6X6X6X6X6X6X6X6X6X6X6X6X6X6X6X6X6X6X6X6X6X6X6X6X",
"6X6X6X6X6X6X6X6X6X6X6XB.n.N.3X3X0XrXM.c.c.l.b.}.;XxXtXyXyXyXnXiXwX6XB.6X6X6X6X6X6X6X6X6X6X6X6X6X6X6X6X6X6X6X6X6X6X6X6X6X6X6X6X6X",
"6X6X6X6X6X6X6X6X6X6X6XB.B.6X5X5X0X9XC.R.L.M.9.).kXzX:X5X5XwXwXwX7XB.6X6X6X6X6X6X6X6X6X6X6X6X6X6X6X6X6X6X6X6X6X6X6X6X6X6X6X6X6X6X",
"6X6X6X6X6X6X6X6X6X6X6X6X6X6X6Xi.9.6.n.k.k.j.h ).^.%XoX.X6X6X6X6X6X6X6X6X6X6X6X6X6X6X6X6X6X6X6X6X6X6X6X6X6X6X6X6X6X6X6X6X6X6X6X6X",
"6X6X6X6X6X6X6X6X6X6X6X6X6X6X6Xp.3.a a r r r < 5 6 ~.).}..XB.B.B.6X6X6X6X6X6X6X6X6X6X6X6X6X6X6X6X6X6X6X6X6X6X6X6X6X6X6X6X6X6X6X6X",
"6X6X6X6X6X6X6X6X6X6X6X6X6X6X.X8.a ; X . . . . + ; 8 6 ).8.4.4.4.4.4.4.4.4.4.t.u..X6X6X6X6X6X6X6X6X6X6X6X6X6X6X6X6X6X6X6X6X6X6X6X",
"6X6X6X6X6X6X6X6X6X6X6X6X6X.X8.3.< X . . . . . X + , 9 < 2 2 2 2 2 2 2 2 2 2 f 3.u.6X6X6X6X6X6X6X6X6X6X6X6X6X6X6X6X6X6X6X6X6X6X6X",
"6X6X6X6X6X6X6X6X6X6X6X6X6Xi.3.7 < o o o o o o o o o o o o o o o o o o o O 9 4 f t.6X6X6X6X6X6X6X6X6X6X6X6X6X6X6X6X6X6X6X6X6X6X6X",
"6X6X6X6X6X6X6X6X6X6X6X6X6Xu.g 6 5 5 5 4 5 5 5 5 5 5 5 5 4 4 4 4 4 4 4 4 4 4 4 7 8.6X6X6X6X6X6X6X6X6X6X6X6X6X6X6X6X6X6X6X6X6X6X6X",
"6X6X6X6X6X6X6X6X6X6X6X6X6Xu.3.f f f f f f f f f f f f f f f f f f f f f f f f 3.u.6X6X6X6X6X6X6X6X6X6X6X6X6X6X6X6X6X6X6X6X6X6X6X",
"6X6X6X6X6X6X6X6X6X6X6X6X6Xi.u.u.t.u.u.t.u.u.u.u.u.u.u.u.u.u.u.u.t.t.t.t.t.t.8.u..X6X6X6X6X6X6X6X6X6X6X6X6X6X6X6X6X6X6X6X6X6X6X6X",
"6X6X6X6X6X6X6X6X6X6X6X6X6X6X6X6X6XB.B.B.6X6X6X6X6X6X6X6X6X6X6X6X6X6X6X6X6X6X6X6X6X6X6X6X6X6X6X6X6X6X6X6X6X6X6X6X6X6X6X6X6X6X6X6X",
"6X6X6X6X6X6X6X6X6X6X6X6X6X6X6X6X6X6X6X6X6X6X6X6X6X6X6X6X6X6X6X6X6X6X6X6X6X6X6X6X6X6X6X6X6X6X6X6X6X6X6X6X6X6X6X6X6X6X6X6X6X6X6X6X",
"6X6X6X6X6X6X6X6X6X6X6X6X6X6X6X6X6X6X6X6X6X6X6X6X6X6X6X6X6X6X6X6X6X6X6X6X6X6X6X6X6X6X6X6X6X6X6X6X6X6X6X6X6X6X6X6X6X6X6X6X6X6X6X6X",
"6X6X6X6X6X6X6X6X6X6X6X6X6X6X6X6X6X6X6X6X6X6X6X6X6X6X6X6X6X6X6X6X6X6X6X6X6X6X6X6X6X6X6X6X6X6X6X6X6X6X6X6X6X6X6X6X6X6X6X6X6X6X6X6X",
"6X6X6X6X6X6X6X6X6X6X6X6X6X6X6X6X6X6X6X6X6X6X6X6X6X6X6X6X6X6X6X6X6X6X6X6X6X6X6X6X6X6X6X6X6X6X6X6X6X6X6X6X6X6X6X6X6X6X6X6X6X6X6X6X"
};
