/* XPM */
static char *_398db667666468ef032d94d6e104d2880ucPnBX4RWd3dvq[] = {
/* columns rows colors chars-per-pixel */
"41 101 123 2 ",
"   c black",
".  c #381F07",
"X  c #3A2109",
"o  c #3D250E",
"O  c #593300",
"+  c #49321C",
"@  c #583714",
"#  c #513B26",
"$  c #3F5500",
"%  c #405601",
"&  c #425804",
"*  c #445A07",
"=  c #475C0A",
"-  c #495E0D",
";  c #5F401E",
":  c #56691E",
">  c #5B4733",
",  c #5E4A37",
"<  c #6A4C2D",
"1  c #725638",
"2  c #5F712A",
"3  c #62742E",
"4  c #637530",
"5  c #6A7B39",
"6  c #6B7C3A",
"7  c #6C7D3C",
"8  c gray46",
"9  c #A83804",
"0  c #874F1C",
"q  c #975711",
"w  c #976B23",
"e  c #976C24",
"r  c #996D26",
"t  c #996E28",
"y  c #9B702B",
"u  c #9C722D",
"i  c #A6642F",
"p  c #CB5F00",
"a  c #D97800",
"s  c #DA7A04",
"d  c #DA7D0A",
"f  c #DB7E0C",
"g  c #E77400",
"h  c #6D8400",
"j  c #73890A",
"k  c #B5BF0B",
"l  c #B6C00F",
"z  c #B6C010",
"x  c #BAC31B",
"c  c #FFD235",
"v  c #8F8174",
"b  c #BE8D66",
"n  c #B49460",
"m  c #B79866",
"M  c #E6A85A",
"N  c #C1A77D",
"B  c #EBB97B",
"V  c #F3D462",
"C  c #808080",
"Z  c #959595",
"A  c gray62",
"S  c #A8B28B",
"D  c #ABA197",
"F  c #B7BF9F",
"G  c gray69",
"H  c #B7B7B7",
"J  c #BBBBBB",
"K  c #D4B59B",
"L  c #EFC694",
"P  c #C7CEB5",
"I  c #DECFB8",
"U  c #CCD2BB",
"Y  c #CDD3BD",
"T  c #CED4BE",
"R  c #F9EAB3",
"E  c #8181FF",
"W  c #8787FF",
"Q  c #8888FF",
"!  c #8F8FFF",
"~  c #9292FF",
"^  c #9595FF",
"/  c #9B9BFF",
"(  c #9E9EFF",
")  c #A3A3FF",
"_  c #A4A4FF",
"`  c #AAAAFF",
"'  c #ADADFF",
"]  c #B1B1FF",
"[  c #BCBCFF",
"{  c gray76",
"}  c #C6C6C6",
"|  c #CBCBCB",
" . c #D2D7C3",
".. c #D3D8C5",
"X. c #D5DAC7",
"o. c #D6DAC8",
"O. c #D8DCCB",
"+. c #DBDFCF",
"@. c #E1D5C0",
"#. c #E7EADF",
"$. c #D8D8FF",
"%. c #DDDDFF",
"&. c #E1E1E1",
"*. c #E4E4E4",
"=. c #E8E6E3",
"-. c #E8EAE0",
";. c #EAECE3",
":. c #EBE8E6",
">. c #EFEDEB",
",. c gray93",
"<. c #F1EFED",
"1. c #E0E0FF",
"2. c #E9E9FF",
"3. c #EEEEFF",
"4. c #F1F1F1",
"5. c #F6F5F4",
"6. c #F8F9F6",
"7. c #F0F0FF",
"8. c #F7F7FF",
"9. c gray98",
"0. c #FEFDFB",
"q. c #FBFBFF",
"w. c white",
/* pixels */
"w.w.w.w.w.w.w.w.w.w.w.w.w.w.w.w.w.w.w.w.w.w.w.w.w.w.w.w.w.w.w.w.w.w.w.w.w.w.w.w.w.",
"w.w.w.w.w.w.w.w.w.w.w.w.w.w.w.w.w.w.w.w.w.w.w.w.w.w.w.w.w.w.w.w.w.w.w.w.w.w.w.w.w.",
"w.w.w.w.w.w.w.w.w.w.w.w.w.w.w.w.w.w.w.w.w.w.w.w.w.w.w.w.w.w.w.w.w.w.w.w.w.w.w.w.w.",
"w.w.w.w.w.w.w.w.w.w.w.w.w.w.w.w.w.w. . .T o...o.+.+.+.+. .q.w.w.w.w.w.w.w.w.w.w.w.",
"w.w.w.w.w.w.w.w.w.w.w.w.w.w.+.#.-.h h h $ k k k k k k k k $ O.w.w.w.w.w.w.w.w.w.w.",
"w.w.w.w.w.w.w.w.w.w.w.w.Y j h h h h h h h $ k k k k k k k k k $ w.w.w.w.w.w.w.w.w.",
"w.w.w.w.w.w.w.w.w.w.U * h h h h h h h h h h $ k k k k k k k k k % 8.w.w.w.w.w.w.w.",
"w.w.w.w.w.w.w.w.w.l k $ h h h h h h h h $ $ $ $ $ $ $ $ $ $ $ $ $ W w.w.w.w.w.w.w.",
"w.w.w.w.w.w.w.w.l k k $ h h h h h $ $ $ k k k $ h h h h h h h h h = q.w.w.w.w.w.w.",
"w.w.w.w.w.w.w.2 k k k $ h h $ $ $ k k k k k k $ h h h h h h h h h $ E w.w.w.w.w.w.",
"w.w.w.w.w.w.6.x k k k $ $ $ k k k k k k k k k $ h h h h h $ $ $ $ $ ~ w.w.w.w.w.w.",
"w.w.w.w.w.w.= k k k $ $ k k k k k k k k k k k $ $ $ $ $ $ h h h h h - ;.q.w.w.w.w.",
"w.w.w.w.w.w.- k k $ h h $ k k k k k k $ $ $ $ h h h h h h h h h h h h $ E w.w.w.w.",
"w.w.w.w.w.w.2.$ $ h h h $ k k k k $ $ h h h h h h h h $ $ $ $ $ $ $ $ E %.w.w.w.w.",
"w.w.w.w.w.w.w.P h h h h h $ k $ $ h h $ $ $ $ $ $ $ $ q q q q w $ E W 7.w.w.w.w.w.",
"w.w.w.w.w.w.w.4 h h h h h $ $ $ $ $ $ V V V V q q q V q q O O w $ W w.w.w.w.w.w.w.",
"w.w.w.w.w.w.w.3.$ h h $ $ $ h h h $ V V V V O O q q V V q q V w $ E w.w.w.w.w.w.w.",
"w.w.w.w.w.w.w.w.w.$ $ k k $ h h h $ V V V O O V q q V V V q V w $ E w.w.w.w.w.w.w.",
"w.w.w.w.w.w.w.w.w.X.k k k $ h h h $ V V V V V V V V V V V C C w $ W w.w.w.w.w.w.w.",
"w.w.w.w.w.w.w.w.w.6 k k k $ h h h $ V V V V C C C C V V V C w.C w % q.w.w.w.w.w.w.",
"w.w.w.w.w.w.w.w.w.5 k k k $ h h h h $ V V C w.w.w.C V V V C w.C w $ E w.w.w.w.w.w.",
"w.w.w.w.w.w.w.w.w.F k k k $ h h h h $ V C w.w.w.w.C V V V C w.C w $ E w.w.w.w.w.w.",
"w.w.w.w.w.w.w.w.w.z k k k $ h h h h $ V C w.w.w.w.C V V V C   C w $ Q w.w.w.w.w.w.",
"w.w.w.w.w.w.w.w.* k k k k $ h h h h $ V C w.w.w.  C V V V V C C V w & w.w.w.w.w.w.",
"w.w.w.w.w.w.w.w.2 $ $ $ $ $ $ $ $ $ $ V V C w.w.w.C V V V V w V V w $ E w.w.w.w.w.",
"w.w.w.w.w.w.w.w.7 h h h h $ k k k k k $ V V C C C V V V V V w V V w $ ^ w.w.w.w.w.",
"w.w.w.w.w.w.w.w.4 h h h h $ k k k k k $ V V V V V V V V V V V w V V w * w.w.w.w.w.",
"w.w.w.w.w.w.w.w.3 h h h h $ k k k k k k $ V V V V V V V V V V w V V w $ E w.w.w.w.",
"w.w.w.w.w.w.w.w.: h h h h $ k k k k k k $ V V w V V V V V w w V V w h $ E w.w.w.w.",
"w.w.w.w.w.w.w.w.= h h h $ k k k k k k k $ V V V w w V V V V V V V w h $ E w.w.w.w.",
"w.w.w.w.w.w.w.w.%.% h h $ k k k k k k k $ V V V V V w w w V V V w h $ E [ w.w.w.w.",
"w.w.w.w.w.w.w.w.w.S h h $ k k k k k k $ V V V V V V V V V V V w $ $ E w.w.w.w.w.w.",
"w.w.w.w.w.w.w.w.w.q.$ h $ k k k k k k $ V V V V V V V V V V V w E ! 2.w.w.w.w.w.w.",
"w.w.w.w.w.w.w.w.w.w.w.$ $ $ k k k $ $ w.w w V V V V V V V V w E 8.w.w.w.w.w.w.w.w.",
"w.w.w.w.w.w.w.w.w.w.w.9.w.w.$ $ $ 9.w.w.w.8 w w w V V V w w E 8.w.w.w.w.w.w.w.w.w.",
"w.w.w.w.w.w.w.w.w.w.w.w.w.w.8 9 9.9.w.w.w.8 E ' ' w w w E ) 7.w.w.w.w.w.w.w.w.w.w.",
"w.w.w.w.w.w.w.w.w.w.C w.w.w.8 9 9.w.w.w.w.8 ^ w.w.q.~ / 7.w.w.w.w.w.w.w.w.w.w.w.w.",
"w.w.w.w.w.w.w.w.w.H i w.w.w.8 9 9 i i i i 8 ^ w.w.w.w.w.w.w.w.w.w.w.w.w.w.w.w.w.w.",
"w.w.w.w.w.w.w.w.w.4.i i i i 8 9 9 0 0 0 0 8 ] w.w.w.w.w.w.w.w.w.w.w.w.w.w.w.w.w.w.",
"w.w.w.w.w.w.w.w.w.9.0 0 0 0 8 9 9 9 w.w.w.8 ) w.w.w.w.w.w.w.w.w.w.w.w.w.w.w.w.w.w.",
"w.w.w.w.w.w.w.w.w.w.w.w.w.w.8 9 9 9 w.w.w.8 ! w.w.w.w.w.w.w.w.w.w.w.w.w.w.w.w.w.w.",
"w.w.w.w.w.w.w.w.w.G w.w.w.w.8 9 9 9 w.w.w.8 ! w.w.w.w.w.w.w.w.w.w.w.w.w.w.w.w.w.w.",
"w.w.w.w.w.w.w.w.Z 8 8 8 8 8 9 9 i 9 i i i 8 / w.w.w.w.w.w.w.w.w.w.w.w.w.w.w.w.w.w.",
"w.w.w.w.w.w.w.w.*.w V V w 0 9 9 0 9 9 0 0 8 ` w.w.w.w.w.w.w.w.w.w.w.w.w.w.w.w.w.w.",
"w.w.w.w.w.w.w.w.,.w V V w 9.9 9 w.9 9 w.w.8 ( w.w.w.w.w.w.w.w.w.w.w.w.w.w.w.w.w.w.",
"w.w.w.w.w.w.w.w.w.w V V w 9.9 9 w.9 9 w.w.8 ! w.w.w.w.w.w.w.w.w.w.w.w.w.w.w.w.w.w.",
"w.w.w.w.w.w.w.w.K w V V w i 9 9 w.w.9 w.w.8 Q w.w.w.w.w.w.w.w.w.w.w.w.w.w.w.w.w.w.",
"w.w.w.w.w.w.w.J 0 w V V w 0 9 9 i i 9 9 i 8 ~ w.w.w.w.w.w.w.w.w.w.w.w.w.w.w.w.w.w.",
"w.w.w.w.w.w.w.&.w.w V V w 0 9 9 0 0 9 9 0 8 %.w.w.w.w.w.w.w.w.w.w.w.w.w.w.w.w.w.w.",
"w.w.w.w.w.w.w.H w.w V V w w.9 9 w.w.9 9 w.8 m w.w.w.w.w.w.w.w.w.w.w.w.w.w.w.w.w.w.",
"w.w.w.w.w.w.w.,.w.w V V w w.9 9 w.w.9.9 w.8 w E w.w.w.w.w.w.w.w.w.w.w.w.w.w.w.w.w.",
"w.w.w.w.w.w.w.b i w V V w w.9 9 9.9.9.9 9 8 w W w.w.w.w.w.w.w.w.w.w.w.w.w.w.w.w.w.",
"w.w.w.w.w.w.{ 0 i w V V w i 9 9 i i i 9 9 8 w E w.w.w.w.w.w.w.w.w.w.w.w.w.w.w.w.w.",
"w.w.w.w.w.w.| w.0 w V V w 0 9 9 0 0 0 9 9 8 w E w.w.w.w.w.w.w.w.w.w.w.w.w.w.w.w.w.",
"w.w.w.w.w.w.A w.9.w V w w.w.9 9 w.w.w.w.9 9 8 / w.w.w.w.w.w.w.w.w.w.w.w.w.w.w.w.w.",
"w.w.w.w.w.w.} 8 w.w V w w.w.9 9 w.w.w.w.9 9 8 r w.w.w.w.w.w.w.w.w.w.w.w.w.w.w.w.w.",
"w.w.w.w.w.w.L c 8 w V w 8 8 8 8 8 8 8 8 8 8 8 V e w.w.w.w.w.w.w.w.w.w.w.w.w.w.w.w.",
"w.w.w.w.w.w.a c w w V V w w c c c c c c c c a V V e w.w.w.w.w.w.w.w.w.w.w.w.w.w.w.",
"w.w.w.w.w.w.a w V V V V V V w c c c c c c c a V V w E w.w.w.w.w.w.w.w.w.w.w.w.w.w.",
"w.w.w.w.w.w.q.t V V V V V V V w c c c c c c a V V w E w.w.w.w.w.w.w.w.w.w.w.w.w.w.",
"w.w.w.w.w.w.w.R V V V V V V V w c c c c c c c a w E $.w.w.w.w.w.w.w.w.w.w.w.w.w.w.",
"w.w.w.w.w.w.y V V V V V V w V w c c c c c c c a E w.w.w.w.w.w.w.w.w.w.w.w.w.w.w.w.",
"w.w.w.w.w.w.u V V V V V V w V w c c c a c c c c M q.w.w.w.w.w.w.w.w.w.w.w.w.w.w.w.",
"w.w.w.w.w.w.$.w V w V w V w w c c c c a c c c c a E w.w.w.w.w.w.w.w.w.w.w.w.w.w.w.",
"w.w.w.w.w.w.w.w.w w w w w w c c c c c a c c c c a E w.w.w.w.w.w.w.w.w.w.w.w.w.w.w.",
"w.w.w.w.w.w.w.w.L c c c c c c c c c c a c c c c a E w.w.w.w.w.w.w.w.w.w.w.w.w.w.w.",
"w.w.w.w.w.w.w.w.s c c c c c c c c c c a c c c c a E w.w.w.w.w.w.w.w.w.w.w.w.w.w.w.",
"w.w.w.w.w.w.w.w.s c c p p p p p p p c a c c c a E ] w.w.w.w.w.w.w.w.w.w.w.w.w.w.w.",
"w.w.w.w.w.w.w.w.s c c p g g g g g p c a c c c a W w.w.w.w.w.w.w.w.w.w.w.w.w.w.w.w.",
"w.w.w.w.w.w.w.w.s c c p g g g g g p c a c c a E $.w.w.w.w.w.w.w.w.w.w.w.w.w.w.w.w.",
"w.w.w.w.w.w.w.w.s c c p g g g g g p c a a a E q.w.w.w.w.w.w.w.w.w.w.w.w.w.w.w.w.w.",
"w.w.w.w.w.w.w.w.d c c p g g g g g p c a E E 8.w.w.w.w.w.w.w.w.w.w.w.w.w.w.w.w.w.w.",
"w.w.w.w.w.w.w.w.B c c p g g g g g p c a W w.w.w.w.w.w.w.w.w.w.w.w.w.w.w.w.w.w.w.w.",
"w.w.w.w.w.w.w.0.c c c p p p p p p p c a E w.w.w.w.w.w.w.w.w.w.w.w.w.w.w.w.w.w.w.w.",
"w.w.w.w.w.w.w.f c c c c c c c c c c c a E w.w.w.w.w.w.w.w.w.w.w.w.w.w.w.w.w.w.w.w.",
"w.w.w.w.w.w.w.s c c c c c c c c c c c a E w.w.w.w.w.w.w.w.w.w.w.w.w.w.w.w.w.w.w.w.",
"w.w.w.w.w.w.w.3.a a a a a a a a a a a E %.w.w.w.w.w.w.w.w.w.w.w.w.w.w.w.w.w.w.w.w.",
"w.w.w.w.w.w.w.w.w.^ ' e V V w E ] ` / 2.w.w.w.w.w.w.w.w.w.w.w.w.w.w.w.w.w.w.w.w.w.",
"w.w.w.w.w.w.w.w.w.w.w.@.V V w W w.w.w.w.w.w.w.w.w.w.w.w.w.w.w.w.w.w.w.w.w.w.w.w.w.",
"w.w.w.w.w.w.w.w.w.w.w.N V V w E w.w.w.w.w.w.w.w.w.w.w.w.w.w.w.w.w.w.w.w.w.w.w.w.w.",
"w.w.w.w.w.w.w.w.w.w.w.n V V w E w.w.w.w.w.w.w.w.w.w.w.w.w.w.w.w.w.w.w.w.w.w.w.w.w.",
"w.w.w.w.w.w.w.w.w.w.w.I V V w E w.w.w.w.w.w.w.w.w.w.w.w.w.w.w.w.w.w.w.w.w.w.w.w.w.",
"w.w.w.w.w.w.w.w.w.w.w.o . . . X >.7.w.w.w.w.w.w.w.w.w.w.w.w.w.w.w.w.w.w.w.w.w.w.w.",
"w.w.w.w.w.w.w.w.w.w.v @ @ @ @ @ . E w.w.:.5.=.w.w.w.w.w.w.w.w.w.w.w.w.w.w.w.w.w.w.",
"w.w.w.w.w.w.w.w.w.5.< @ @ @ @ @ . o w.; @ @ @ X w.w.w.w.w.w.w.w.w.w.w.w.w.w.w.w.w.",
"w.w.w.w.w.w.w.w.w.> @ @ @ @ @ @ @ @ @ @ @ @ @ @ X q.w.w.w.w.w.w.w.w.w.w.w.w.w.w.w.",
"w.w.w.w.w.w.w.w.w.D @ @ @ @ @ @ @ @ @ @ @ @ @ @ . W w.w.w.w.w.w.w.w.w.w.w.w.w.w.w.",
"w.w.w.w.w.w.w.w.w.<.@ @ @ @ @ @ @ @ @ @ @ @ @ @ @ + q.w.w.w.w.w.w.w.w.w.w.w.w.w.w.",
"w.w.w.w.w.w.w.w.9.1 @ @ @ @ @ @ @ @ @ @ @ @ @ @ @ . E w.w.w.w.w.w.w.w.w.w.w.w.w.w.",
"w.w.w.w.w.w.w.w.# @ @ @ @ @ @ @ @ @ @ @ @ @ @ @ @ . W w.w.w.w.w.w.w.w.w.w.w.w.w.w.",
"w.w.w.w.w.w.w.w., . . . . . . . . . . . . . . . . . E w.w.w.w.w.w.w.w.w.w.w.w.w.w.",
"w.w.w.w.w.w.w.w.1./ _ _ _ _ ) _ _ _ _ ) ) ) ) ( ( / [ w.w.w.w.w.w.w.w.w.w.w.w.w.w.",
"w.w.w.w.w.w.w.w.w.w.w.w.w.w.w.w.w.w.w.w.w.w.w.w.w.w.w.w.w.w.w.w.w.w.w.w.w.w.w.w.w.",
"w.w.w.w.w.w.w.w.w.w.w.w.w.w.w.w.w.w.w.w.w.w.w.w.w.w.w.w.w.w.w.w.w.w.w.w.w.w.w.w.w.",
"w.w.w.w.w.w.w.w.w.w.w.w.w.w.w.w.w.w.w.w.w.w.w.w.w.w.w.w.w.w.w.w.w.w.w.w.w.w.w.w.w.",
"w.w.w.w.w.w.w.w.w.w.w.w.w.w.w.w.w.w.w.w.w.w.w.w.w.w.w.w.w.w.w.w.w.w.w.w.w.w.w.w.w.",
"w.w.w.w.w.w.w.w.w.w.w.w.w.w.w.w.w.w.w.w.w.w.w.w.w.w.w.w.w.w.w.w.w.w.w.w.w.w.w.w.w.",
"w.w.w.w.w.w.w.w.w.w.w.w.w.w.w.w.w.w.w.w.w.w.w.w.w.w.w.w.w.w.w.w.w.w.w.w.w.w.w.w.w.",
"w.w.w.w.w.w.w.w.w.w.w.w.w.w.w.w.w.w.w.w.w.w.w.w.w.w.w.w.w.w.w.w.w.w.w.w.w.w.w.w.w.",
"w.w.w.w.w.w.w.w.w.w.w.w.w.w.w.w.w.w.w.w.w.w.w.w.w.w.w.w.w.w.w.w.w.w.w.w.w.w.w.w.w.",
"w.w.w.w.w.w.w.w.w.w.w.w.w.w.w.w.w.w.w.w.w.w.w.w.w.w.w.w.w.w.w.w.w.w.w.w.w.w.w.w.w."
};
