/* XPM */
static char *_be90bfecac04fff8aab6669b744e7e0[] = {
/* columns rows colors chars-per-pixel */
"64 64 125 2 ",
"   c #923F3F",
".  c #913E3E",
"X  c #8F3D3D",
"o  c #A04747",
"O  c #C15959",
"+  c #C25959",
"@  c #A24747",
"#  c #913F3F",
"$  c #8C3C3C",
"%  c #813737",
"&  c #6B2D2D",
"*  c #4C2020",
"=  c #522323",
"-  c #7D3636",
";  c #944040",
":  c #934040",
">  c #903E3E",
",  c #933F3F",
"<  c #6C2D2D",
"1  c #4E2121",
"2  c #3E1A1A",
"3  c #954141",
"4  c #9D4545",
"5  c #A94C4C",
"6  c #B95454",
"7  c #B55252",
"8  c #9E4545",
"9  c #964141",
"0  c #9E4646",
"q  c #994343",
"w  c #863939",
"e  c #7E3636",
"r  c #974242",
"t  c #4D2121",
"y  c #BA5555",
"u  c #AA4C4C",
"i  c #9F4646",
"p  c #B75353",
"a  c #B15050",
"s  c #8E3E3E",
"d  c #6A2D2D",
"f  c #4B2020",
"g  c #532323",
"h  c #B65252",
"j  c #9C4545",
"k  c #954040",
"l  c #B65353",
"z  c #A04646",
"x  c #4D2020",
"c  c #984343",
"v  c #8B3C3C",
"b  c #8D3C3C",
"n  c #B25050",
"m  c #AE4F4F",
"M  c #8D3D3D",
"N  c #512323",
"B  c #7A3434",
"V  c #8E3D3D",
"C  c #8A3B3B",
"Z  c #512222",
"A  c #793434",
"S  c #9B4444",
"D  c #B35151",
"F  c #853939",
"G  c #823737",
"H  c #833838",
"J  c #6C2E2E",
"K  c #713030",
"L  c #833737",
"P  c #873A3A",
"I  c #8F3E3E",
"U  c #6D2E2E",
"Y  c #612929",
"T  c #4A1F1F",
"R  c #491F1F",
"E  c #602929",
"W  c #692C2C",
"Q  c #6A2C2C",
"!  c #3F1A1A",
"~  c #4B1F1F",
"^  c #431C1C",
"/  c #401B1B",
"(  c #562525",
")  c #5E2929",
"_  c #5E2A2A",
"`  c #441D1D",
"'  c #7C3535",
"]  c #7B3535",
"[  c #883C3C",
"{  c #A14949",
"}  c #A14A4A",
"|  c #893C3C",
" . c #6E2F2F",
".. c #7F3737",
"X. c #AC4D4D",
"o. c #BC5656",
"O. c #B85353",
"+. c #984242",
"@. c #A14747",
"#. c #BC5555",
"$. c #AB4D4D",
"%. c #B85454",
"&. c #8A3C3C",
"*. c #A24A4A",
"=. c #A24848",
"-. c #8A3D3D",
";. c #AE4E4E",
":. c #BD5656",
">. c #C35959",
",. c #BB5555",
"<. c #AB4C4C",
"1. c #BE5656",
"2. c #AD4D4D",
"3. c #BD5757",
"4. c #B05050",
"5. c #5D2929",
"6. c #9E4848",
"7. c #924040",
"8. c #5F2828",
"9. c #421C1C",
"0. c #481E1E",
"q. c #7D3535",
"w. c #843838",
"e. c #7F3636",
"r. c white",
/* pixels */
"  . X o O + @ . #   . $ % & * = - ; : . X o O + @ > > $ % & * = - , > o O + @ . #   . $ % & * = - , > o O + @ . #   . $ % < 1 2 ",
"  3 4 5 6 7 8 . # 9 0 q w & * = e ; : 3 4 5 6 7 4 3 8 q w & * = - r 8 5 6 7 8 . # 9 0 q w & * = - r 8 5 6 7 8 . # 9 0 q w & t 2 ",
". 8 7 y u 4 9   # i p a s d f g e ; , 8 h y u j k 0 l a s d f = - z p y u 4 9   # i p a s d f = - z p y u 4 9   # i p a s & x 2 ",
"$ q a a c v $ b $ q n m M & * N B V M q a a c C v q n m M & * Z A S D a c v $ b $ q n m M & * Z A S D a c v $ b $ q n m M & t 2 ",
"% w s s F % % G G w s M H J x 1 K H L w s s F % % w s M H J x 1 K P I s F % % G G w s M H J x 1 K P I s F % % G G w s M H U 1 2 ",
"& & d d & & d d & & d & J Y T R E J < d W W d & & & d & J Y T R E < & d & & d d & & d & J Y T R E < & Q d d & & & & d & J Y T ! ",
"* * f f * * ~ ~ * * f * x T ^ ^ R * * f T T f * * * f * x T ^ ^ R * f f * * ~ ~ * * f * x T ^ ^ R * * ~ ~ ~ * * * * f * x T ^ / ",
"= = = = N ( ) _ ( = = Z 1 R ^ ` 1 = = ( ) _ ( = = = = Z 1 R ^ ` 1 g g = N ( ) _ ( = = Z 1 R ^ ` 1 = = ( ) _ ( = = = = Z 1 T ^ / ",
"- - - ' ] [ { } | ' ' A K E R 1  .e ' [ { } | ' - - - A K E R 1  ...e ' ] [ { } | ' ' A K E R 1  .e ' [ { } | ' - - - A K E T ! ",
"; ; ; r i X.o.O.z r z S P < * g ..q z X.o.O.z , , +.@.S P < * g ..9 k r i X.o.O.z r z S P < * g ..q z X.o.O.z , , +.@.S P J 1 2 ",
"; , , i p #.$.8 9 z %.D I & f = e @.6 #.$.0 r ,   z %.D I & f g ..k ; i p #.$.8 9 z %.D I & f = e @.6 #.$.0 r ,   z %.D I & x 2 ",
"M b $ q a a c C v q n m M & * Z A S D a c v $ b $ q n m M & * N B V M q a a c C v q n m M & * Z A S D a c v $ b $ q n m M & t 2 ",
"G G G w s s F % % w s M H J x 1 K P I s F % % G G w s M H J x 1 K H L w s s F % % w s M H J x 1 K P I s F % % G G w s M H U 1 2 ",
"& & d d Q d & & & & d & J Y T R E < & d & & d d & & d & J Y T R E < & d Q d & & & & d & J Y T R E & Q W d & & & & & d & J Y T ! ",
"* * ~ ~ ~ f * * * * f * x T ^ ^ R * f f * * ~ ~ * * f * x T ^ ^ R * f ~ ~ f * * * * f * x T ^ ^ R * T T f * * * * * f * x T ^ / ",
"Z ( ) _ ( = = = = = = Z 1 R ^ ` 1 g g = N ( ) _ ( = = Z 1 R ^ ` t ( _ _ ( = = = = = = Z 1 R ^ ` t ( _ _ ( = = = = = = Z 1 T ^ / ",
"B [ { } | ' - - - - - A K E R 1  ...e ' ] [ { } | ' ' A K E R t J &.*.} | ' - - - - - A K E R t J &.*.} | ' - - - - - A K E T ! ",
"=.$.#.O.z , ; ; ; +.@.S P < * g ..9 k r i X.o.O.z r z S P & * ( -.;.:.O.z , ; ; ; +.@.S P & * ( -.;.:.O.z , ; ; ; +.@.S P J 1 2 ",
">.,.<.0 r : ; , , z %.D I & f g ..k ; i p #.$.8 9 z %.D I Q T _ *.1.2.0 r : ; , , z %.D I Q T _ *.1.2.0 r : ; , , z %.D I & x 2 ",
"3.4.+.v $ M M b $ q n m M & * N B V M q a a c C v q n m M d ~ 5.6.D q v $ M M b $ q n m M d ~ 5.6.D q v $ M M b $ q n m M & t 2 ",
"7.M F % % G G G G w s M H J x 1 K H L w s s F % % w s M H J * = - I w % % G G G G w s M H J * = - I w % % G G G G w s M H U 1 2 ",
"Q d & & & & d d & & d & J Y T R E < & d Q d & & & & d & J Y T R 8.& & & d d & & & & d & J Y T R 8.& & & & & d d & & d & J Y T ! ",
"f f * * * * ~ ~ * * f * x T ^ ^ R * f ~ ~ f * * * * f * x T ^ 9.0.* * * ~ ~ * * * * f * x T ^ 9.0.* * * * * ~ ~ * * f * x T ^ / ",
"= = = = N ( ) _ ( = = Z 1 R ^ ` t ( _ _ ( = = = = = = Z 1 R ^ ` 1 = = ( ) _ ( = = = = Z 1 R ^ ` 1 g g = N ( ) _ ( = = N 1 R ^ / ",
"- - - ' ] [ { } | ' ' A K E R t J &.*.} | ' - - - - - A K E R 1  .e ' [ { } | ' - - - A K E R 1  ...e ' ] [ { } | q.- B K E T ! ",
"; ; ; r i X.o.O.z r z S P & * ( -.;.:.O.z , ; ; ; +.@.S P < * g ..q z X.o.O.z , , +.@.S P < * g ..9 k r i X.o.O.z ; ; I w.U 1 2 ",
"; , , i p #.$.8 9 z %.D I Q T _ *.1.2.0 r : ; , , z %.D I & f = e @.6 #.$.0 r ,   z %.D I & f g ..k ; i p #.$.0 r ; ; X H J 1 2 ",
"M b $ q a a c C v q n m M d ~ 5.6.D q v $ M M b $ q n m M & * Z A S D a c v $ b $ q n m M & * N B V M q a a c v $ V V C % J 1 2 ",
"G G G w s s F % % w s M H J * = - I w % % G G G G w s M H J x 1 K P I s F % % G G w s M H J x 1 K H L w s s F % % G G % e.U 1 2 ",
"& & & d W W d & & & d & J Y T R 8.& & & & & d d & & d & J Y T R E < & d & & d d & & d & J Y T R E J < d W W d & & & & J U Y T ! ",
"* * * f T T f * * * f * x T ^ 9.0.* * * * * ~ ~ * * f * x T ^ ^ R * f f * * ~ ~ * * f * x T ^ ^ R * * f T T f * * * * * x T ^ / ",
"= = N ( ) _ ( = = = = Z 1 R ^ ` 1 g g = N ( ) _ ( = = Z 1 R ^ ` 1 g g = N ( ) _ ( = = Z 1 R ^ ` 1 = = ( ) _ ( = = = = Z 1 T ^ / ",
"- ' ] [ { } | ' - - - A K E R 1  ...e ' ] [ { } | ' ' A K E R 1  ...e ' ] [ { } | ' ' A K E R 1  .e ' [ { } | ' - - - A K E T ! ",
"; r i X.o.O.z , , +.@.S P < * g ..9 k r i X.o.O.z r z S P < * g ..9 k r i X.o.O.z r z S P < * g ..q z X.o.O.z , , +.@.S P J 1 2 ",
"  i p #.$.0 r ,   z %.D I & f g ..k ; i p #.$.8 9 z %.D I & f g ..k ; i p #.$.8 9 z %.D I & f = e @.6 #.$.0 r ,   z %.D I & x 2 ",
"$ q a a c v $ b $ q n m M & * N B V M q a a c C v q n m M & * N B V M q a a c C v q n m M & * Z A S D a c v $ b $ q n m M & t 2 ",
"% w s s F % % G G w s M H J x 1 K H L w s s F % % w s M H J x 1 K H L w s s F % % w s M H J x 1 K P I s F % % G G w s M H U 1 2 ",
"& & d d & & d d & & d & J Y T R E < & d Q d & & & & d & J Y T R E J < d W W d & & & d & J Y T R E < & d & & d d & & d & J Y T ! ",
"* * f f * * ~ ~ * * f * x T ^ ^ R * f ~ ~ f * * * * f * x T ^ ^ R * * f T T f * * * f * x T ^ ^ R * f f * * ~ ~ * * f * x T ^ / ",
"= = = = N ( ) _ ( = = Z 1 R ^ ` t ( _ _ ( = = = = = = Z 1 R ^ ` 1 = = ( ) _ ( = = = = Z 1 R ^ ` 1 g g = N ( ) _ ( = = Z 1 T ^ / ",
"- - - ' ] [ { } | ' ' A K E R t J &.*.} | ' - - - - - A K E R 1  .e ' [ { } | ' - - - A K E R 1  ...e ' ] [ { } | ' ' A K E T ! ",
"; ; ; r i X.o.O.z r z S P & * ( -.;.:.O.z , ; ; ; +.@.S P < * g ..q z X.o.O.z , , +.@.S P < * g ..9 k r i X.o.O.z r z S P J 1 2 ",
"; , , i p #.$.8 9 z %.D I Q T _ *.1.2.0 r : ; , , z %.D I & f = e @.6 #.$.0 r ,   z %.D I & f g ..k ; i p #.$.8 9 z %.D I & x 2 ",
"M b $ q a a c C v q n m M d ~ 5.6.D q v $ M M b $ q n m M & * Z A S D a c v $ b $ q n m M & * N B V M q a a c C v q n m M & t 2 ",
"G G G w s s F % % w s M H J * = - I w % % G G G G w s M H J x 1 K P I s F % % G G w s M H J x 1 K H L w s s F % % w s M H U 1 2 ",
"& & d d Q d & & & & d & J Y T R 8.& & & & & d d & & d & J Y T R E < & d & & d d & & d & J Y T R E < & d Q d & & & & d & J Y T ! ",
"* * ~ ~ ~ f * * * * f * x T ^ 9.0.* * * * * ~ ~ * * f * x T ^ ^ R * f f * * ~ ~ * * f * x T ^ ^ R * f ~ ~ f * * * * f * x T ^ / ",
"Z ( ) _ ( = = = = = = Z 1 R ^ ` 1 g g = N ( ) _ ( = = Z 1 R ^ ` 1 g g = N ( ) _ ( = = Z 1 R ^ ` t ( _ _ ( = = = = = = Z 1 T ^ / ",
"B [ { } | ' - - - - - A K E R 1  ...e ' ] [ { } | ' ' A K E R 1  ...e ' ] [ { } | ' ' A K E R t J &.*.} | ' - - - - - A K E T ! ",
"=.$.#.O.z , ; ; ; +.@.S P < * g ..9 k r i X.o.O.z r z S P < * g ..9 k r i X.o.O.z r z S P & * ( -.;.:.O.z , ; ; ; +.@.S P J 1 2 ",
">.,.<.0 r : ; , , z %.D I & f g ..k ; i p #.$.8 9 z %.D I & f g ..k ; i p #.$.8 9 z %.D I Q T _ *.1.2.0 r : ; , , z %.D I & x 2 ",
"3.4.+.v $ M M b $ q n m M & * N B V M q a a c C v q n m M & * N B V M q a a c C v q n m M d ~ 5.6.D q v $ M M b $ q n m M & t 2 ",
"7.M F % % G G G G w s M H J x 1 K H L w s s F % % w s M H J x 1 K H L w s s F % % w s M H J * = - I w % % G G G G w s M H U 1 2 ",
"Q d & & & & d d & & d & J Y T R E J < d W W d & & & d & J Y T R E < & d Q d & & & & d & J Y T R 8.& & & d d & & & & d & J Y T ! ",
"f f * * * * ~ ~ * * f * x T ^ ^ R * * f T T f * * * f * x T ^ ^ R * f ~ ~ f * * * * f * x T ^ 9.0.* * * ~ ~ * * * * f * x T ^ / ",
"= = = = N ( ) _ ( = = Z 1 R ^ ` 1 = = ( ) _ ( = = = = Z 1 R ^ ` t ( _ _ ( = = = = = = Z 1 R ^ ` 1 = = ( ) _ ( = = = = Z 1 T ^ / ",
"- - - ' ] [ { } | ' ' A K E R 1  .e ' [ { } | ' - - - A K E R t J &.*.} | ' - - - - - A K E R 1  .e ' [ { } | ' - - - A K E T ! ",
"; ; ; r i X.o.O.z r z S P < * g ..q z X.o.O.z , , +.@.S P & * ( -.;.:.O.z , ; ; ; +.@.S P < * g ..q z X.o.O.z , , +.@.S P J 1 2 ",
"; , , i p #.$.8 9 z %.D I & f = e @.6 #.$.0 r ,   z %.D I Q T _ *.1.2.0 r : ; , , z %.D I & f = e @.6 #.$.0 r ,   z %.D I & x 2 ",
"M b $ q a a c C v q n m M & * Z A S D a c v $ b $ q n m M d ~ 5.6.D q v $ M M b $ q n m M & * Z A S D a c v $ b $ q n m M & t 2 ",
"G G G w s s F % % w s M H J x 1 K P I s F % % G G w s M H J * = - I w % % G G G G w s M H J x 1 K P I s F % % G G w s M H U 1 2 ",
"< < < & & & & < < & & & U Y T T E J & & & < < < < & & & U Y T R 8.< J < < < < < < & & & U Y T T E J & & & < < < < & & & U Y T ! ",
"1 1 1 t x x t 1 1 t x t 1 T ^ ^ T 1 x x t 1 1 1 1 t x t 1 T ^ ^ R t 1 1 1 1 1 1 1 t x t 1 T ^ ^ T 1 x x t 1 1 1 1 t x t 1 T ^ / ",
"2 2 2 2 2 2 2 2 2 2 2 2 2 ! / / ! 2 2 2 2 2 2 2 2 2 2 2 2 ! / / ! 2 2 2 2 2 2 2 2 2 2 2 2 ! / / ! 2 2 2 2 2 2 2 2 2 2 2 2 ! / / "
};
